<svg width="41" height="41" viewBox="0 0 41 41" fill="none" xmlns="http://www.w3.org/2000/svg">
<path d="M20.3166 3.67847C11.1166 3.67847 3.66663 11.1451 3.66663 20.3451C3.66663 29.5451 11.1166 37.0118 20.3166 37.0118C29.5333 37.0118 37 29.5451 37 20.3451C37 11.1451 29.5333 3.67847 20.3166 3.67847ZM20.3333 33.6785C12.9666 33.6785 6.99996 27.7118 6.99996 20.3451C6.99996 12.9785 12.9666 7.0118 20.3333 7.0118C27.7 7.0118 33.6666 12.9785 33.6666 20.3451C33.6666 27.7118 27.7 33.6785 20.3333 33.6785Z" fill="#F7931E"/>
<path d="M21.1666 12.012H18.6666V22.012L27.4166 27.262L28.6666 25.212L21.1666 20.762V12.012Z" fill="#F7931E"/>
</svg>
