<svg width="21" height="20" viewBox="0 0 21 20" fill="none" xmlns="http://www.w3.org/2000/svg">
<path d="M10.5378 1.66669C5.93783 1.66669 2.2045 5.40002 2.2045 10C2.2045 14.6 5.93783 18.3334 10.5378 18.3334H14.7045V16.6667H10.5378C6.92116 16.6667 3.87117 13.6167 3.87117 10C3.87117 6.38335 6.92116 3.33335 10.5378 3.33335C14.1545 3.33335 17.2045 6.38335 17.2045 10V11.1917C17.2045 11.85 16.6128 12.5 15.9545 12.5C15.2962 12.5 14.7045 11.85 14.7045 11.1917V10C14.7045 7.70002 12.8378 5.83335 10.5378 5.83335C8.23783 5.83335 6.37117 7.70002 6.37117 10C6.37117 12.3 8.23783 14.1667 10.5378 14.1667C11.6878 14.1667 12.7378 13.7 13.4878 12.9417C14.0295 13.6834 14.9628 14.1667 15.9545 14.1667C17.5962 14.1667 18.8712 12.8334 18.8712 11.1917V10C18.8712 5.40002 15.1378 1.66669 10.5378 1.66669ZM10.5378 12.5C9.1545 12.5 8.03783 11.3834 8.03783 10C8.03783 8.61669 9.1545 7.50002 10.5378 7.50002C11.9212 7.50002 13.0378 8.61669 13.0378 10C13.0378 11.3834 11.9212 12.5 10.5378 12.5Z" fill="white"/>
</svg>
