<svg width="21" height="20" viewBox="0 0 21 20" fill="none" xmlns="http://www.w3.org/2000/svg">
<path d="M17.3156 12.8167C16.2906 12.8167 15.299 12.65 14.374 12.35C14.0823 12.25 13.7573 12.325 13.5323 12.55L12.224 14.1917C9.86562 13.0667 7.65729 10.9417 6.48229 8.5L8.10729 7.11667C8.33229 6.88333 8.39896 6.55833 8.30729 6.26667C7.99896 5.34167 7.84063 4.35 7.84063 3.325C7.84063 2.875 7.46562 2.5 7.01562 2.5H4.13229C3.68229 2.5 3.14062 2.7 3.14062 3.325C3.14062 11.0667 9.58229 17.5 17.3156 17.5C17.9073 17.5 18.1406 16.975 18.1406 16.5167V13.6417C18.1406 13.1917 17.7656 12.8167 17.3156 12.8167Z" fill="white"/>
</svg>
