<svg width="108" height="78" viewBox="0 0 108 78" fill="none" xmlns="http://www.w3.org/2000/svg">
<path d="M24.0172 67.8169C23.3658 67.8169 22.7934 67.7153 22.3027 67.5122C21.8121 67.3091 21.406 67.0326 21.0845 66.6772C20.7631 66.3245 20.5206 65.907 20.3627 65.4302C20.2019 64.9506 20.123 64.4372 20.123 63.8843C20.123 63.4244 20.2019 62.9618 20.3627 62.4963C20.5206 62.0308 20.7631 61.6076 21.0845 61.2296C21.406 60.8516 21.8121 60.5469 22.3027 60.3071C22.7934 60.0673 23.363 59.9517 24.0172 59.9517C24.2738 59.9517 24.5078 59.9573 24.7221 59.9686C24.9364 59.9799 25.1395 59.9996 25.334 60.0278C25.5286 60.056 25.7175 60.0899 25.9064 60.1322C26.0954 60.1745 26.2871 60.2225 26.4902 60.2789C26.4986 60.4877 26.524 60.7444 26.5719 61.0491C26.6199 61.3537 26.6819 61.6584 26.758 61.9716C26.7045 62.0026 26.6424 62.0195 26.5719 62.0195C26.5099 62.0195 26.4535 62.0111 26.4027 61.997C26.352 61.9829 26.3181 61.9377 26.304 61.8672C26.1631 61.3537 25.9431 60.9898 25.6386 60.7698C25.334 60.5526 24.8969 60.4425 24.3217 60.4425C23.8395 60.4425 23.4137 60.5215 23.0443 60.6767C22.6749 60.8318 22.3647 61.0491 22.111 61.3312C21.8572 61.6133 21.6683 61.949 21.5385 62.3468C21.4088 62.7445 21.3468 63.179 21.3468 63.6529C21.3468 64.189 21.4286 64.6826 21.5921 65.134C21.7557 65.5854 21.9756 65.9747 22.252 66.2991C22.5283 66.6264 22.8498 66.8775 23.2192 67.058C23.5886 67.2357 23.9833 67.326 24.4035 67.326C24.7362 67.326 25.0182 67.2922 25.2494 67.2273C25.4778 67.1624 25.6696 67.0665 25.8219 66.9424C25.9741 66.8182 26.101 66.6631 26.2053 66.4825C26.3097 66.302 26.4084 66.0932 26.5014 65.859C26.555 65.7434 26.6481 65.6841 26.7806 65.6841C26.8736 65.6841 26.947 65.7039 27.0034 65.7434C26.9103 66.0142 26.8173 66.3161 26.7242 66.6405C26.6311 66.9677 26.5522 67.295 26.4902 67.6194C26.1095 67.6815 25.7203 67.7294 25.3256 67.7661C24.9252 67.8 24.4909 67.8169 24.0172 67.8169Z" fill="#616161"/>
<path d="M33.4354 61.9377L29.9162 66.522V66.8605C29.9162 66.9536 29.9247 67.027 29.9444 67.0834C29.9642 67.137 29.998 67.1793 30.0431 67.2132C30.0882 67.247 30.1531 67.2724 30.2292 67.295C30.3054 67.3176 30.4069 67.343 30.531 67.3655C30.6155 67.3881 30.6578 67.4445 30.6578 67.5291C30.6578 67.5602 30.655 67.594 30.6522 67.6279C30.6494 67.6617 30.6437 67.6984 30.6353 67.7379C30.4323 67.721 30.2236 67.7097 30.0065 67.6956C29.7893 67.6843 29.575 67.6787 29.3664 67.6787C29.1492 67.6787 28.9208 67.6843 28.6783 67.6956C28.4386 67.7069 28.1961 67.721 27.9565 67.7379C27.948 67.6984 27.9424 67.6617 27.9395 67.6279C27.9367 67.594 27.9339 67.5602 27.9339 67.5291C27.9339 67.4276 27.9734 67.374 28.0495 67.3655C28.3456 67.3119 28.5458 67.2527 28.6558 67.1906C28.7657 67.1285 28.8193 67.0185 28.8193 66.8634V60.939C28.8193 60.7839 28.7714 60.6739 28.6783 60.6118C28.5853 60.5497 28.3822 60.4877 28.0721 60.4256C27.9931 60.4171 27.9565 60.3551 27.9565 60.2394C27.9565 60.2084 27.9593 60.1774 27.9621 60.1463C27.9649 60.1153 27.9706 60.0814 27.979 60.0419C28.1736 60.0589 28.3992 60.0701 28.6558 60.0814C28.9124 60.0927 29.1464 60.0984 29.3551 60.0984C29.5722 60.0984 29.8006 60.0927 30.0431 60.0814C30.2828 60.0701 30.5197 60.056 30.7537 60.0419C30.7622 60.0814 30.7678 60.1153 30.7706 60.1463C30.7735 60.1774 30.7763 60.2084 30.7763 60.2394C30.7763 60.3551 30.7368 60.4171 30.6607 60.4256C30.3589 60.4736 30.1587 60.53 30.06 60.6005C29.9642 60.671 29.9134 60.7839 29.9134 60.939V65.6503L33.4326 61.066V60.939C33.4326 60.767 33.3959 60.6485 33.3226 60.5836C33.2493 60.5187 33.0885 60.4651 32.8376 60.4256C32.753 60.4115 32.7079 60.3466 32.7079 60.2394C32.7079 60.2084 32.7107 60.1774 32.7135 60.1463C32.7163 60.1153 32.722 60.0814 32.7304 60.0419C32.925 60.0589 33.128 60.0701 33.3423 60.0814C33.5566 60.0927 33.7681 60.0984 33.9768 60.0984C34.1939 60.0984 34.4223 60.0927 34.6592 60.0814C34.896 60.0701 35.1357 60.056 35.3754 60.0419C35.3839 60.0814 35.3895 60.1153 35.3923 60.1463C35.3952 60.1774 35.398 60.2084 35.398 60.2394C35.398 60.3551 35.3585 60.4171 35.2824 60.4256C34.9778 60.4736 34.7776 60.53 34.6817 60.6005C34.5859 60.671 34.5351 60.7839 34.5351 60.939V66.8634C34.5351 67.0185 34.5859 67.1257 34.6874 67.185C34.7889 67.2442 34.9891 67.3035 35.2936 67.3655C35.3726 67.374 35.4093 67.4276 35.4093 67.5291C35.4093 67.5602 35.4064 67.594 35.4036 67.6279C35.4008 67.6617 35.3923 67.6984 35.3867 67.7379C35.1921 67.721 34.9637 67.7097 34.6987 67.6956C34.4336 67.6843 34.1967 67.6787 33.9881 67.6787C33.7709 67.6787 33.5397 67.6843 33.2944 67.6956C33.0491 67.7069 32.8094 67.721 32.5782 67.7379C32.5697 67.6984 32.564 67.6617 32.5612 67.6279C32.5584 67.594 32.5556 67.5602 32.5556 67.5291C32.5556 67.4276 32.5951 67.374 32.6712 67.3655C32.9588 67.3119 33.1562 67.2527 33.2662 67.1906C33.3762 67.1285 33.4297 67.0185 33.4297 66.8634V61.9377H33.4354Z" fill="#616161"/>
<path d="M38.5421 63.337H39.6024C40.0225 63.337 40.3891 63.3878 40.7049 63.4893C41.0207 63.5909 41.283 63.7291 41.4916 63.904C41.7003 64.0789 41.8582 64.2877 41.9626 64.5275C42.0669 64.7673 42.1205 65.0325 42.1205 65.3202C42.1205 65.6475 42.0669 65.955 41.9626 66.2427C41.8582 66.5305 41.7003 66.7816 41.4916 66.996C41.283 67.2104 41.0207 67.3768 40.7049 67.4981C40.3891 67.6194 40.0225 67.6787 39.6024 67.6787H37.9133C37.6962 67.6787 37.4649 67.6843 37.2196 67.6956C36.9743 67.7069 36.7431 67.721 36.5259 67.7379C36.509 67.6589 36.5034 67.6025 36.5034 67.563C36.5034 67.4304 36.5428 67.3599 36.619 67.3542C36.9292 67.3147 37.1463 67.2611 37.2647 67.1906C37.386 67.1201 37.4452 67.0072 37.4452 66.8521V60.9278C37.4452 60.7726 37.3888 60.6654 37.276 60.6062C37.1632 60.5469 36.9433 60.4877 36.6162 60.4256C36.5372 60.4172 36.5005 60.3523 36.5005 60.2281C36.5005 60.1886 36.5034 60.1576 36.5062 60.1294C36.509 60.1012 36.5146 60.073 36.5231 60.0419C36.8558 60.0645 37.1378 60.0814 37.3634 60.0899C37.589 60.0984 37.792 60.1012 37.9697 60.1012H39.7772C40.1268 60.1012 40.4286 60.0899 40.6852 60.0673C40.9418 60.0448 41.1138 60.0335 41.1984 60.0335C41.2999 60.0335 41.3676 60.0984 41.4014 60.2253C41.4352 60.3551 41.4663 60.5074 41.4888 60.6852C41.5114 60.8629 41.5396 61.0547 41.5706 61.2578C41.6016 61.461 41.6608 61.6302 41.7454 61.7713C41.6834 61.8192 41.6129 61.8418 41.5368 61.8418C41.4352 61.8418 41.3704 61.808 41.3394 61.7374C41.2463 61.5428 41.1561 61.3735 41.0715 61.224C40.9869 61.0745 40.8882 60.956 40.7754 60.8629C40.6626 60.7698 40.5273 60.6993 40.3665 60.6541C40.2086 60.6062 40.0112 60.5836 39.7772 60.5836H38.5421V63.337ZM38.5421 63.8166V67.1991H39.2076C39.5347 67.1991 39.8054 67.1539 40.0225 67.0665C40.2396 66.9762 40.4145 66.8521 40.547 66.6941C40.6795 66.5361 40.7726 66.3471 40.8262 66.1299C40.8797 65.9127 40.9079 65.6757 40.9079 65.419C40.9079 64.883 40.7613 64.4824 40.4652 64.2172C40.1691 63.952 39.749 63.8194 39.2076 63.8194H38.5421V63.8166Z" fill="#616161"/>
<path d="M48.6258 61.9377L45.1066 66.522V66.8605C45.1066 66.9536 45.1151 67.027 45.1348 67.0834C45.1546 67.137 45.1884 67.1793 45.2335 67.2132C45.2786 67.247 45.3435 67.2724 45.4196 67.295C45.4958 67.3176 45.5973 67.343 45.7214 67.3655C45.806 67.3881 45.8483 67.4445 45.8483 67.5291C45.8483 67.5602 45.8454 67.594 45.8426 67.6279C45.8398 67.6617 45.8342 67.6984 45.8257 67.7379C45.6227 67.721 45.414 67.7097 45.1969 67.6956C44.9797 67.6843 44.7654 67.6787 44.5568 67.6787C44.3396 67.6787 44.1112 67.6843 43.8687 67.6956C43.629 67.7069 43.3865 67.721 43.1469 67.7379C43.1384 67.6984 43.1328 67.6617 43.1299 67.6279C43.1271 67.594 43.1243 67.5602 43.1243 67.5291C43.1243 67.4276 43.1638 67.374 43.2399 67.3655C43.536 67.3119 43.7362 67.2527 43.8462 67.1906C43.9561 67.1285 44.0097 67.0185 44.0097 66.8634V60.939C44.0097 60.7839 43.9618 60.6739 43.8687 60.6118C43.7757 60.5497 43.5727 60.4877 43.2625 60.4256C43.1835 60.4171 43.1469 60.3551 43.1469 60.2394C43.1469 60.2084 43.1497 60.1774 43.1525 60.1463C43.1553 60.1153 43.161 60.0814 43.1694 60.0419C43.364 60.0589 43.5896 60.0701 43.8462 60.0814C44.1028 60.0927 44.3368 60.0984 44.5455 60.0984C44.7626 60.0984 44.991 60.0927 45.2335 60.0814C45.4732 60.0701 45.7101 60.056 45.9441 60.0419C45.9526 60.0814 45.9582 60.1153 45.961 60.1463C45.9639 60.1774 45.9667 60.2084 45.9667 60.2394C45.9667 60.3551 45.9272 60.4171 45.8511 60.4256C45.5493 60.4736 45.3491 60.53 45.2504 60.6005C45.1546 60.671 45.1038 60.7839 45.1038 60.939V65.6503L48.623 61.066V60.939C48.623 60.767 48.5863 60.6485 48.513 60.5836C48.4397 60.5187 48.2789 60.4651 48.028 60.4256C47.9434 60.4115 47.8983 60.3466 47.8983 60.2394C47.8983 60.2084 47.9011 60.1774 47.9039 60.1463C47.9067 60.1153 47.9124 60.0814 47.9208 60.0419C48.1154 60.0589 48.3184 60.0701 48.5327 60.0814C48.747 60.0927 48.9585 60.0984 49.1672 60.0984C49.3843 60.0984 49.6127 60.0927 49.8496 60.0814C50.0865 60.0701 50.3261 60.056 50.5658 60.0419C50.5743 60.0814 50.5799 60.1153 50.5827 60.1463C50.5856 60.1774 50.5884 60.2084 50.5884 60.2394C50.5884 60.3551 50.5489 60.4171 50.4728 60.4256C50.1682 60.4736 49.968 60.53 49.8721 60.6005C49.7763 60.671 49.7255 60.7839 49.7255 60.939V66.8634C49.7255 67.0185 49.7763 67.1257 49.8778 67.185C49.9793 67.2442 50.1795 67.3035 50.484 67.3655C50.563 67.374 50.5997 67.4276 50.5997 67.5291C50.5997 67.5602 50.5968 67.594 50.594 67.6279C50.5912 67.6617 50.5827 67.6984 50.5771 67.7379C50.3825 67.721 50.1541 67.7097 49.8891 67.6956C49.624 67.6843 49.3871 67.6787 49.1785 67.6787C48.9613 67.6787 48.7301 67.6843 48.4848 67.6956C48.2395 67.7069 47.9998 67.721 47.7686 67.7379C47.7601 67.6984 47.7545 67.6617 47.7516 67.6279C47.7488 67.594 47.746 67.5602 47.746 67.5291C47.746 67.4276 47.7855 67.374 47.8616 67.3655C48.1492 67.3119 48.3466 67.2527 48.4566 67.1906C48.5666 67.1285 48.6201 67.0185 48.6201 66.8634V61.9377H48.6258Z" fill="#616161"/>
<path d="M53.7297 64.3892V66.7787C53.7297 66.9564 53.8143 67.0834 53.9806 67.1567C54.147 67.2301 54.4064 67.2922 54.7561 67.3373C54.8491 67.3542 54.8971 67.4191 54.8971 67.5348C54.8971 67.5658 54.8942 67.5968 54.8914 67.6279C54.8886 67.6589 54.883 67.6928 54.8745 67.7322C54.6489 67.7153 54.3923 67.704 54.1047 67.6899C53.8171 67.6786 53.5069 67.673 53.1713 67.673C52.9683 67.673 52.7399 67.6786 52.4833 67.6899C52.2267 67.7012 51.987 67.7153 51.7614 67.7322C51.753 67.6928 51.7473 67.6589 51.7445 67.6279C51.7417 67.5968 51.7389 67.5686 51.7389 67.5461C51.7389 67.4304 51.7783 67.3683 51.8545 67.3599C52.1647 67.2978 52.3733 67.2386 52.4777 67.1793C52.582 67.1201 52.6356 67.0157 52.6356 66.8577V60.9221C52.6356 60.767 52.5764 60.6541 52.4551 60.5836C52.3339 60.5131 52.1195 60.4595 51.8094 60.42C51.7304 60.4115 51.6938 60.341 51.6938 60.2112C51.6938 60.1717 51.7022 60.1153 51.7163 60.0363C51.9334 60.0532 52.1647 60.0645 52.41 60.0758C52.6553 60.0871 52.8865 60.0927 53.1037 60.0927H54.7476C55.5879 60.0927 56.2167 60.2902 56.6369 60.688C57.0571 61.0857 57.2657 61.5964 57.2657 62.2283C57.2657 62.4765 57.2093 62.7304 57.0965 62.9872C56.9837 63.2439 56.8202 63.4752 56.6059 63.6812C56.3916 63.8871 56.1293 64.0564 55.8135 64.1889C55.4977 64.3215 55.1424 64.3864 54.7476 64.3864H53.7297V64.3892ZM54.3472 63.9097C54.8914 63.9097 55.3116 63.7884 55.6048 63.5486C55.9009 63.3088 56.0476 62.8997 56.0476 62.3242C56.0476 62.0844 56.0194 61.8587 55.9658 61.6471C55.9122 61.4384 55.8191 61.2522 55.6866 61.0942C55.5541 60.9362 55.3793 60.8093 55.1621 60.7162C54.945 60.6231 54.6715 60.5751 54.3472 60.5751H53.7297V63.9097H54.3472Z" fill="#616161"/>
<path d="M62.0763 67.8169C61.425 67.8169 60.8525 67.7153 60.3619 67.5122C59.8712 67.3091 59.4652 67.0326 59.1437 66.6772C58.8223 66.3245 58.5798 65.907 58.4218 65.4302C58.2611 64.9506 58.1822 64.4372 58.1822 63.8843C58.1822 63.4244 58.2611 62.9618 58.4218 62.4963C58.5798 62.0308 58.8223 61.6076 59.1437 61.2296C59.4652 60.8516 59.8712 60.5469 60.3619 60.3071C60.8525 60.0673 61.4221 59.9517 62.0763 59.9517C62.3329 59.9517 62.567 59.9573 62.7813 59.9686C62.9956 59.9799 63.1986 59.9996 63.3932 60.0278C63.5878 60.056 63.7767 60.0899 63.9656 60.1322C64.1545 60.1745 64.3463 60.2225 64.5493 60.2789C64.5578 60.4877 64.5832 60.7444 64.6311 61.0491C64.679 61.3537 64.7411 61.6584 64.8172 61.9716C64.7636 62.0026 64.7016 62.0195 64.6311 62.0195C64.5691 62.0195 64.5127 62.0111 64.4619 61.997C64.4112 61.9829 64.3773 61.9377 64.3632 61.8672C64.2222 61.3537 64.0023 60.9898 63.6977 60.7698C63.3932 60.5526 62.9561 60.4425 62.3809 60.4425C61.8987 60.4425 61.4729 60.5215 61.1035 60.6767C60.7341 60.8318 60.4239 61.0491 60.1701 61.3312C59.9164 61.6133 59.7274 61.949 59.5977 62.3468C59.468 62.7445 59.406 63.179 59.406 63.6529C59.406 64.189 59.4877 64.6826 59.6513 65.134C59.8148 65.5854 60.0348 65.9747 60.3111 66.2991C60.5875 66.6264 60.9089 66.8775 61.2783 67.058C61.6477 67.2357 62.0425 67.326 62.4626 67.326C62.7954 67.326 63.0774 67.2922 63.3086 67.2273C63.537 67.1624 63.7287 67.0665 63.881 66.9424C64.0333 66.8182 64.1602 66.6631 64.2645 66.4825C64.3689 66.302 64.4675 66.0932 64.5606 65.859C64.6142 65.7434 64.7072 65.6841 64.8398 65.6841C64.9328 65.6841 65.0061 65.7039 65.0625 65.7434C64.9695 66.0142 64.8764 66.3161 64.7834 66.6405C64.6903 66.9677 64.6114 67.295 64.5493 67.6194C64.1686 67.6815 63.7795 67.7294 63.3847 67.7661C62.9871 67.8 62.5501 67.8169 62.0763 67.8169Z" fill="#616161"/>
<path d="M71.6835 61.413C71.5058 61.413 71.362 61.4581 71.2521 61.5484C71.1421 61.6387 71.049 61.7543 70.9673 61.8982C70.8855 62.0421 70.8093 62.2029 70.7388 62.3834C70.6684 62.564 70.5866 62.7445 70.4879 62.9251C70.392 63.1085 70.2736 63.2806 70.1326 63.4442C69.9916 63.6078 69.8111 63.7489 69.5855 63.8645V63.8871C69.8421 63.9351 70.0649 63.9999 70.2567 64.0846C70.4456 64.1692 70.6091 64.2679 70.7417 64.3751C70.8742 64.4823 70.9898 64.6065 71.0913 64.7419C71.1928 64.8773 71.2859 65.0353 71.3705 65.213C71.4551 65.3907 71.5425 65.5967 71.6271 65.8308C71.7117 66.065 71.8104 66.3358 71.9175 66.6461C71.9655 66.7872 72.0134 66.9 72.0698 66.9903C72.1234 67.0806 72.1854 67.1511 72.2503 67.2047C72.3151 67.2583 72.3856 67.2978 72.4533 67.3204C72.521 67.3429 72.5971 67.3683 72.6761 67.3909C72.7466 67.4078 72.7804 67.4614 72.7804 67.5545C72.7804 67.5856 72.7776 67.6194 72.7748 67.6533C72.7719 67.6871 72.7635 67.7238 72.7578 67.7633C72.5802 67.7464 72.3997 67.7351 72.2221 67.721C72.0444 67.7097 71.8724 67.704 71.7089 67.704C71.5453 67.704 71.4071 67.6871 71.2944 67.6561C71.1816 67.6251 71.0913 67.5771 71.0208 67.515C70.9503 67.453 70.8939 67.374 70.8516 67.2809C70.8093 67.1878 70.7727 67.0778 70.7417 66.9536C70.595 66.3866 70.4569 65.9296 70.3272 65.5826C70.1974 65.2356 70.0424 64.9535 69.8562 64.7362C69.7547 64.6206 69.6504 64.5247 69.5404 64.4513C69.4304 64.378 69.3092 64.3187 69.1738 64.2764C69.0385 64.2341 68.8834 64.2059 68.7142 64.189C68.5422 64.1748 68.3476 64.1664 68.1305 64.1664H67.9782V66.8492C67.9782 67.0044 68.0262 67.1144 68.1249 67.1765C68.2207 67.2386 68.4012 67.2978 68.6663 67.3514C68.7058 67.3599 68.7368 67.374 68.7593 67.3994C68.7819 67.4219 68.7932 67.4642 68.7932 67.5291C68.7932 67.5602 68.7904 67.5912 68.7875 67.6222C68.7847 67.6533 68.7791 67.6871 68.7706 67.7266C68.5225 67.7097 68.2856 67.6984 68.06 67.6843C67.8344 67.673 67.6258 67.6674 67.4312 67.6674C67.2282 67.6674 67.0026 67.673 66.7488 67.6843C66.495 67.6956 66.2525 67.7097 66.0213 67.7266C66.0128 67.6871 66.0072 67.6533 66.0044 67.6222C66.0015 67.5912 65.9987 67.563 65.9987 67.5404C65.9987 67.4248 66.0382 67.3627 66.1143 67.3542C66.4104 67.2922 66.6106 67.2329 66.7206 67.1737C66.8306 67.1144 66.8841 67.0101 66.8841 66.8521V60.9165C66.8841 60.7613 66.8306 60.6513 66.7206 60.5836C66.6106 60.5187 66.4104 60.4623 66.1143 60.4143C66.0354 60.4059 65.9987 60.341 65.9987 60.2168C65.9987 60.1943 66.0015 60.1661 66.0044 60.135C66.0072 60.104 66.0128 60.0701 66.0213 60.0307C66.2469 60.0476 66.4866 60.0589 66.7432 60.0701C66.9998 60.0814 67.2253 60.0871 67.4199 60.0871C67.6229 60.0871 67.8485 60.0814 68.0967 60.0701C68.3448 60.0589 68.593 60.0448 68.8439 60.0307C68.8524 60.0701 68.858 60.104 68.8608 60.135C68.8637 60.1661 68.8665 60.1943 68.8665 60.2168C68.8665 60.341 68.827 60.4087 68.7509 60.4143C68.4548 60.4623 68.2546 60.5187 68.1446 60.5836C68.0346 60.6485 67.9811 60.7613 67.9811 60.9165V63.7037H68.2151C68.6888 63.7037 69.0611 63.6106 69.3346 63.4244C69.6053 63.2382 69.8252 63.0069 69.986 62.7304C70.1495 62.454 70.2792 62.1521 70.3779 61.8277C70.4738 61.5004 70.5866 61.2014 70.7106 60.9249C70.8347 60.6485 70.9955 60.4171 71.1957 60.2309C71.393 60.0448 71.675 59.9517 72.0416 59.9517C72.1262 59.9517 72.2108 59.9601 72.2926 59.9799C72.3744 59.9996 72.4336 60.0194 72.473 60.0448C72.5351 60.0842 72.5661 60.1689 72.5661 60.3015C72.5661 60.4115 72.5492 60.53 72.5182 60.6626C72.4871 60.7952 72.4448 60.9193 72.3969 61.035C72.3462 61.1506 72.2898 61.2494 72.2277 61.3312C72.1657 61.413 72.1008 61.4525 72.0303 61.4525C71.9683 61.4525 71.9175 61.444 71.8781 61.4299C71.8301 61.4215 71.7681 61.413 71.6835 61.413Z" fill="#616161"/>
<path d="M78.1521 64.8999H75.5523L74.805 66.7787C74.7655 66.8803 74.7458 66.9564 74.7458 67.0129C74.7458 67.1765 74.9827 67.2922 75.4564 67.3627C75.51 67.3711 75.5466 67.3909 75.5664 67.4276C75.5861 67.4614 75.5946 67.5037 75.5946 67.5489C75.5946 67.5714 75.5918 67.5997 75.5889 67.6307C75.5861 67.6617 75.5805 67.6956 75.572 67.7351C75.3633 67.7181 75.1406 67.7069 74.9065 67.6928C74.6725 67.6815 74.4441 67.6758 74.2185 67.6758C74.0634 67.6758 73.9027 67.6786 73.7419 67.6871C73.5812 67.6956 73.4064 67.7097 73.2287 67.7351C73.2118 67.6561 73.2062 67.594 73.2062 67.5489C73.2062 67.4953 73.2146 67.4473 73.2344 67.4078C73.2541 67.3683 73.2936 67.3458 73.3556 67.3373C73.5953 67.2978 73.7758 67.2498 73.897 67.1906C74.0183 67.1314 74.1057 67.0411 74.1593 66.917L76.9678 60.1519C77.0299 60.0194 77.1032 59.9545 77.1906 59.9545C77.2047 59.9545 77.2526 59.9629 77.3316 59.977L80.1514 66.9508C80.1993 67.0608 80.3037 67.1455 80.4672 67.2075C80.6308 67.2696 80.7887 67.3119 80.9438 67.3345C80.9917 67.3514 81.0284 67.3711 81.0538 67.3994C81.0819 67.4276 81.0932 67.4755 81.0932 67.5461C81.0932 67.5686 81.0904 67.5968 81.0876 67.6279C81.0848 67.6589 81.0763 67.6927 81.0707 67.7322C80.8225 67.7153 80.5772 67.704 80.3375 67.6899C80.0978 67.6786 79.8722 67.673 79.6608 67.673C79.4436 67.673 79.1955 67.6786 78.9135 67.6899C78.6343 67.7012 78.3806 67.7153 78.155 67.7322C78.1465 67.6927 78.1409 67.6589 78.1381 67.6279C78.1352 67.5968 78.1324 67.5686 78.1324 67.5461C78.1324 67.4755 78.1465 67.4276 78.1719 67.3994C78.2001 67.3711 78.2255 67.3599 78.248 67.3599C78.4511 67.3204 78.6146 67.2752 78.7387 67.2245C78.8627 67.1737 78.9248 67.0975 78.9248 66.9959C78.9248 66.9423 78.9079 66.8831 78.8768 66.821L78.1521 64.8999ZM77.966 64.4231L76.8832 61.5653L75.7525 64.4231H77.966Z" fill="#616161"/>
<path d="M83.8651 64.3639C83.9272 64.3244 83.9948 64.2905 84.0681 64.2595C84.1415 64.2284 84.2091 64.2059 84.2712 64.1889C83.9046 64.1269 83.6057 64.0253 83.3688 63.8843C83.132 63.7432 82.9458 63.5824 82.8105 63.399C82.6751 63.2157 82.5821 63.0267 82.5313 62.8264C82.4806 62.6289 82.4552 62.4427 82.4552 62.2734C82.4552 61.9546 82.5088 61.6612 82.6187 61.3932C82.7287 61.1252 82.8895 60.8967 83.1094 60.7049C83.3265 60.5159 83.5944 60.3635 83.9074 60.2563C84.2232 60.1463 84.5842 60.0927 84.9987 60.0927H86.6765C86.9021 60.0927 87.1389 60.0871 87.3871 60.0758C87.6352 60.0645 87.8777 60.0504 88.109 60.0363C88.1174 60.0758 88.1231 60.1096 88.1259 60.1407C88.1287 60.1717 88.1315 60.1999 88.1315 60.2225C88.1315 60.3466 88.092 60.4143 88.0159 60.42C87.6888 60.4595 87.4688 60.5159 87.3561 60.5892C87.2433 60.6626 87.1869 60.7754 87.1869 60.9221V66.8577C87.1869 67.0129 87.2461 67.1229 87.3673 67.1906C87.4886 67.2555 87.6944 67.3119 87.9905 67.3599C88.0751 67.3768 88.1174 67.4388 88.1174 67.5461C88.1174 67.5686 88.1146 67.5968 88.1118 67.6279C88.109 67.6589 88.1033 67.6927 88.0949 67.7322C87.8608 67.7153 87.6127 67.704 87.3476 67.6899C87.0825 67.6786 86.8513 67.673 86.6483 67.673C86.3607 67.673 86.0674 67.6786 85.7685 67.6899C85.4696 67.7012 85.2158 67.7153 85.0043 67.7322C84.9959 67.6927 84.9902 67.6589 84.9874 67.6279C84.9846 67.5968 84.9818 67.5658 84.9818 67.5348C84.9818 67.4191 85.0297 67.3514 85.1228 67.3373C85.4499 67.2978 85.6924 67.247 85.8503 67.185C86.0082 67.1229 86.09 67.0072 86.09 66.8351V64.2708H85.9969C85.8108 64.2708 85.6557 64.2764 85.5373 64.2877C85.416 64.299 85.3145 64.3187 85.2271 64.3469C85.1425 64.3751 85.0664 64.4062 84.9987 64.4457C84.9338 64.4852 84.8633 64.5303 84.7957 64.5867C84.6857 64.6714 84.5701 64.7983 84.446 64.9647C84.3219 65.1312 84.1922 65.323 84.0625 65.5431C83.93 65.7603 83.7974 65.9973 83.6593 66.254C83.5239 66.5107 83.3942 66.7702 83.2673 67.0354C83.1573 67.2696 83.0417 67.4389 82.9177 67.5489C82.7936 67.6589 82.5793 67.7125 82.2776 67.7125C82.1225 67.7125 81.9561 67.7181 81.7813 67.7294C81.6064 67.7407 81.4288 67.7548 81.2511 67.7717C81.2427 67.7322 81.237 67.6956 81.2342 67.6617C81.2314 67.6279 81.2286 67.594 81.2286 67.563C81.2286 67.4699 81.2624 67.4163 81.3329 67.3994C81.488 67.3599 81.6346 67.2837 81.7756 67.1652C81.9166 67.0495 82.0548 66.8633 82.1958 66.6066C82.4044 66.2089 82.5793 65.8872 82.7203 65.639C82.8613 65.3907 82.9881 65.1876 83.1038 65.0325C83.2194 64.8773 83.335 64.7503 83.4478 64.6544C83.5634 64.5529 83.7016 64.4569 83.8651 64.3639ZM86.09 63.794V60.5751H85.3906C84.7844 60.5751 84.3445 60.7077 84.0738 60.9729C83.8031 61.2381 83.6649 61.6415 83.6649 62.186C83.6649 62.6768 83.8115 63.0661 84.1076 63.3595C84.4037 63.6501 84.8239 63.7968 85.3653 63.7968H86.09V63.794Z" fill="#616161"/>
<path d="M32.2059 77.6907C31.5546 77.6907 30.9821 77.5892 30.4915 77.3861C30.0008 77.1829 29.5948 76.9065 29.2733 76.551C28.9519 76.1984 28.7094 75.7808 28.5514 75.3041C28.3907 74.8245 28.3118 74.3111 28.3118 73.7581C28.3118 73.2983 28.3907 72.8356 28.5514 72.3701C28.7094 71.9046 28.9519 71.4815 29.2733 71.1035C29.5948 70.7254 30.0008 70.4207 30.4915 70.181C30.9821 69.9412 31.5517 69.8255 32.2059 69.8255C32.4625 69.8255 32.6966 69.8311 32.9109 69.8424C33.1252 69.8537 33.3282 69.8735 33.5228 69.9017C33.7174 69.9299 33.9063 69.9637 34.0952 70.006C34.2842 70.0484 34.4759 70.0963 34.6789 70.1527C34.6874 70.3615 34.7128 70.6182 34.7607 70.9229C34.8086 71.2276 34.8707 71.5323 34.9468 71.8454C34.8932 71.8764 34.8312 71.8934 34.7607 71.8934C34.6987 71.8934 34.6423 71.8849 34.5915 71.8708C34.5408 71.8567 34.5069 71.8116 34.4928 71.741C34.3518 71.2276 34.1319 70.8637 33.8273 70.6436C33.5228 70.4264 33.0857 70.3164 32.5105 70.3164C32.0283 70.3164 31.6025 70.3954 31.2331 70.5505C30.8637 70.7057 30.5535 70.9229 30.2997 71.205C30.046 71.4871 29.857 71.8228 29.7273 72.2206C29.5976 72.6184 29.5356 73.0528 29.5356 73.5268C29.5356 74.0628 29.6173 74.5565 29.7809 75.0079C29.9444 75.4592 30.1644 75.8486 30.4407 76.173C30.7171 76.5002 31.0385 76.7513 31.4079 76.9319C31.7773 77.1096 32.1721 77.1999 32.5923 77.1999C32.925 77.1999 33.207 77.166 33.4382 77.1011C33.6666 77.0362 33.8584 76.9403 34.0106 76.8162C34.1629 76.6921 34.2898 76.5369 34.3941 76.3564C34.4985 76.1758 34.5972 75.967 34.6902 75.7329C34.7438 75.6172 34.8368 75.558 34.9694 75.558C35.0624 75.558 35.1357 75.5777 35.1921 75.6172C35.0991 75.888 35.006 76.1899 34.913 76.5143C34.8199 76.8416 34.741 77.1688 34.6789 77.4933C34.2983 77.5553 33.9091 77.6033 33.5143 77.6399C33.1139 77.6738 32.6797 77.6907 32.2059 77.6907Z" fill="#616161"/>
<path d="M39.9097 70.449V76.678C39.9097 76.8557 39.983 76.9827 40.1325 77.056C40.2791 77.1294 40.53 77.1858 40.8797 77.2253C40.9643 77.2253 41.0066 77.2873 41.0066 77.4115C41.0066 77.4425 41.0038 77.4735 41.001 77.5046C40.9981 77.5356 40.9925 77.5694 40.984 77.6089C40.7359 77.592 40.4737 77.5807 40.1973 77.5666C39.921 77.5553 39.6446 77.5497 39.3626 77.5497C39.0891 77.5497 38.8128 77.5553 38.528 77.5666C38.2432 77.5779 37.9781 77.592 37.73 77.6089C37.7215 77.5694 37.7159 77.5356 37.713 77.5046C37.7102 77.4735 37.7074 77.4425 37.7074 77.4115C37.7074 77.2958 37.7469 77.2337 37.823 77.2253C38.1727 77.1773 38.4265 77.1209 38.5816 77.0504C38.7366 76.9798 38.8156 76.8557 38.8156 76.678V70.449H37.6143C37.3803 70.449 37.1857 70.4716 37.025 70.5195C36.8671 70.5675 36.7289 70.6352 36.6105 70.7283C36.4949 70.8214 36.3934 70.9427 36.306 71.0894C36.2214 71.2361 36.1311 71.4082 36.0381 71.6028C36.0211 71.6423 35.9986 71.6677 35.9619 71.6846C35.9253 71.7016 35.8943 71.7072 35.8632 71.7072C35.7702 71.7072 35.6969 71.6846 35.6405 71.6367C35.7194 71.3574 35.7758 71.1091 35.8153 70.8891C35.8548 70.6718 35.8886 70.4913 35.9196 70.3474C35.9507 70.2036 35.9845 70.0935 36.0183 70.0145C36.0522 69.9355 36.1086 69.8989 36.1875 69.8989C36.2411 69.8989 36.3201 69.9017 36.4216 69.9102C36.5231 69.9186 36.6302 69.9271 36.743 69.9327C36.8558 69.9412 36.9714 69.9496 37.087 69.9553C37.2027 69.9638 37.3126 69.9666 37.4141 69.9666H41.3083C41.4014 69.9666 41.5057 69.9638 41.6241 69.9553C41.7398 69.9468 41.8582 69.9412 41.9738 69.9327C42.0894 69.9243 42.1966 69.9158 42.2953 69.9102C42.3911 69.9017 42.4729 69.8989 42.5349 69.8989C42.6111 69.8989 42.6703 69.9384 42.7041 70.0202C42.738 70.102 42.769 70.2177 42.7972 70.3644C42.8254 70.5111 42.8564 70.6944 42.8959 70.9116C42.9354 71.1289 42.9974 71.3715 43.082 71.6338C43.0425 71.6508 43.0059 71.6649 42.972 71.6818C42.9382 71.6987 42.8959 71.7044 42.8508 71.7044C42.8197 71.7044 42.7859 71.6959 42.7464 71.6818C42.707 71.6649 42.6816 71.6395 42.6647 71.6C42.5801 71.4053 42.4926 71.2361 42.4081 71.0866C42.3235 70.937 42.2248 70.8186 42.112 70.7255C41.9992 70.6324 41.8638 70.5618 41.7031 70.5167C41.5452 70.4687 41.3478 70.4462 41.1138 70.4462H39.9097V70.449Z" fill="#616161"/>
<path d="M48.1295 74.7737H45.5296L44.7823 76.6526C44.7429 76.7541 44.7231 76.8303 44.7231 76.8867C44.7231 77.0504 44.96 77.166 45.4337 77.2366C45.4873 77.245 45.524 77.2648 45.5437 77.3014C45.5634 77.3353 45.5719 77.3776 45.5719 77.4227C45.5719 77.4453 45.5691 77.4735 45.5663 77.5046C45.5634 77.5356 45.5578 77.5694 45.5493 77.6089C45.3407 77.592 45.1179 77.5807 44.8839 77.5666C44.6498 77.5553 44.4214 77.5497 44.1958 77.5497C44.0407 77.5497 43.88 77.5525 43.7193 77.561C43.5585 77.5694 43.3837 77.5835 43.2061 77.6089C43.1891 77.5299 43.1835 77.4679 43.1835 77.4227C43.1835 77.3691 43.192 77.3212 43.2117 77.2817C43.2314 77.2422 43.2709 77.2196 43.333 77.2112C43.5726 77.1717 43.7531 77.1237 43.8744 77.0645C43.9956 77.0052 44.083 76.915 44.1366 76.7908L46.9452 70.0258C47.0072 69.8932 47.0805 69.8283 47.1679 69.8283C47.182 69.8283 47.23 69.8368 47.3089 69.8509L50.1287 76.8247C50.1767 76.9347 50.281 77.0193 50.4446 77.0814C50.6081 77.1435 50.766 77.1858 50.9211 77.2083C50.969 77.2253 51.0057 77.245 51.0311 77.2732C51.0593 77.3014 51.0706 77.3494 51.0706 77.4199C51.0706 77.4425 51.0677 77.4707 51.0649 77.5017C51.0621 77.5328 51.0536 77.5666 51.048 77.6061C50.7999 77.5892 50.5545 77.5779 50.3148 77.5638C50.0752 77.5525 49.8496 77.5469 49.6381 77.5469C49.421 77.5469 49.1728 77.5525 48.8908 77.5638C48.6117 77.5751 48.3579 77.5892 48.1323 77.6061C48.1238 77.5666 48.1182 77.5328 48.1154 77.5017C48.1126 77.4707 48.1097 77.4425 48.1097 77.4199C48.1097 77.3494 48.1238 77.3014 48.1492 77.2732C48.1774 77.245 48.2028 77.2337 48.2254 77.2337C48.4284 77.1942 48.5919 77.1491 48.716 77.0983C48.8401 77.0475 48.9021 76.9714 48.9021 76.8698C48.9021 76.8162 48.8852 76.757 48.8542 76.6949L48.1295 74.7737ZM47.9434 74.297L46.8606 71.4392L45.7298 74.297H47.9434Z" fill="#616161"/>
<path d="M53.7128 74.2631V76.6526C53.7128 76.8303 53.7974 76.9573 53.9637 77.0306C54.1301 77.104 54.3895 77.166 54.7392 77.2112C54.8322 77.2281 54.8802 77.293 54.8802 77.4086C54.8802 77.4397 54.8773 77.4707 54.8745 77.5017C54.8717 77.5328 54.8661 77.5666 54.8576 77.6061C54.632 77.5892 54.3754 77.5779 54.0878 77.5638C53.8002 77.5525 53.49 77.5469 53.1544 77.5469C52.9514 77.5469 52.723 77.5525 52.4664 77.5638C52.2098 77.5751 51.9701 77.5892 51.7445 77.6061C51.7361 77.5666 51.7304 77.5328 51.7276 77.5017C51.7248 77.4707 51.722 77.4425 51.722 77.4199C51.722 77.3043 51.7614 77.2422 51.8376 77.2337C52.1478 77.1717 52.3564 77.1124 52.4608 77.0532C52.5651 76.9939 52.6187 76.8896 52.6187 76.7316V70.796C52.6187 70.6408 52.5595 70.528 52.4382 70.4575C52.3169 70.3869 52.1026 70.3333 51.7925 70.2938C51.7135 70.2854 51.6768 70.2148 51.6768 70.0851C51.6768 70.0456 51.6853 69.9891 51.6994 69.9102C51.9165 69.9271 52.1478 69.9384 52.3931 69.9497C52.6384 69.9609 52.8696 69.9666 53.0868 69.9666H54.7307C55.571 69.9666 56.1998 70.1641 56.62 70.5618C57.0401 70.9596 57.2488 71.4702 57.2488 72.1021C57.2488 72.3504 57.1924 72.6043 57.0796 72.861C56.9668 73.1177 56.8033 73.3491 56.589 73.555C56.3747 73.761 56.1124 73.9302 55.7966 74.0628C55.4808 74.1954 55.1255 74.2603 54.7307 74.2603H53.7128V74.2631ZM54.3303 73.7835C54.8745 73.7835 55.2947 73.6622 55.5879 73.4224C55.884 73.1826 56.0306 72.7736 56.0306 72.1981C56.0306 71.9583 56.0025 71.7326 55.9489 71.521C55.8953 71.3122 55.8022 71.1261 55.6697 70.9681C55.5372 70.8101 55.3624 70.6831 55.1452 70.59C54.9281 70.4969 54.6546 70.449 54.3303 70.449H53.7128V73.7835H54.3303Z" fill="#616161"/>
<path d="M63.6808 71.8116L60.1617 76.3958V76.7344C60.1617 76.8275 60.1701 76.9008 60.1899 76.9572C60.2096 77.0108 60.2435 77.0532 60.2886 77.087C60.3337 77.1209 60.3986 77.1463 60.4747 77.1688C60.5508 77.1914 60.6523 77.2168 60.7764 77.2394C60.861 77.2619 60.9033 77.3183 60.9033 77.403C60.9033 77.434 60.9005 77.4679 60.8977 77.5017C60.8948 77.5356 60.8892 77.5722 60.8807 77.6117C60.6777 77.5948 60.469 77.5835 60.2519 77.5694C60.0348 77.5581 59.8205 77.5525 59.6118 77.5525C59.3947 77.5525 59.1663 77.5581 58.9238 77.5694C58.6841 77.5807 58.4416 77.5948 58.2019 77.6117C58.1935 77.5722 58.1878 77.5356 58.185 77.5017C58.1822 77.4679 58.1794 77.434 58.1794 77.403C58.1794 77.3014 58.2188 77.2478 58.295 77.2394C58.591 77.1858 58.7913 77.1265 58.9012 77.0644C59.0112 77.0024 59.0648 76.8924 59.0648 76.7372V70.8129C59.0648 70.6577 59.0168 70.5477 58.9238 70.4856C58.8307 70.4236 58.6277 70.3615 58.3175 70.2994C58.2386 70.291 58.2019 70.2289 58.2019 70.1133C58.2019 70.0822 58.2047 70.0512 58.2076 70.0202C58.2104 69.9891 58.216 69.9553 58.2245 69.9158C58.419 69.9327 58.6446 69.944 58.9012 69.9553C59.1578 69.9666 59.3919 69.9722 59.6005 69.9722C59.8177 69.9722 60.0461 69.9666 60.2886 69.9553C60.5283 69.944 60.7651 69.9299 60.9992 69.9158C61.0076 69.9553 61.0133 69.9891 61.0161 70.0202C61.0189 70.0512 61.0217 70.0822 61.0217 70.1133C61.0217 70.2289 60.9823 70.291 60.9061 70.2994C60.6044 70.3474 60.4042 70.4038 60.3055 70.4744C60.2096 70.5449 60.1589 70.6577 60.1589 70.8129V75.5241L63.678 70.9398V70.8129C63.678 70.6408 63.6414 70.5223 63.568 70.4574C63.4947 70.3925 63.334 70.3389 63.083 70.2994C62.9984 70.2853 62.9533 70.2205 62.9533 70.1133C62.9533 70.0822 62.9561 70.0512 62.959 70.0202C62.9618 69.9891 62.9674 69.9553 62.9759 69.9158C63.1704 69.9327 63.3735 69.944 63.5878 69.9553C63.8021 69.9666 64.0136 69.9722 64.2222 69.9722C64.4394 69.9722 64.6678 69.9666 64.9046 69.9553C65.1415 69.944 65.3812 69.9299 65.6209 69.9158C65.6293 69.9553 65.635 69.9891 65.6378 70.0202C65.6406 70.0512 65.6434 70.0822 65.6434 70.1133C65.6434 70.2289 65.604 70.291 65.5278 70.2994C65.2233 70.3474 65.0231 70.4038 64.9272 70.4744C64.8313 70.5449 64.7806 70.6577 64.7806 70.8129V76.7372C64.7806 76.8924 64.8313 76.9996 64.9328 77.0588C65.0343 77.118 65.2345 77.1773 65.5391 77.2394C65.618 77.2478 65.6547 77.3014 65.6547 77.403C65.6547 77.434 65.6519 77.4679 65.6491 77.5017C65.6462 77.5356 65.6378 77.5722 65.6321 77.6117C65.4376 77.5948 65.2092 77.5835 64.9441 77.5694C64.679 77.5581 64.4422 77.5525 64.2335 77.5525C64.0164 77.5525 63.7852 77.5581 63.5398 77.5694C63.2945 77.5807 63.0548 77.5948 62.8236 77.6117C62.8151 77.5722 62.8095 77.5356 62.8067 77.5017C62.8039 77.4679 62.801 77.434 62.801 77.403C62.801 77.3014 62.8405 77.2478 62.9167 77.2394C63.2043 77.1858 63.4017 77.1265 63.5116 77.0644C63.6216 77.0024 63.6752 76.8924 63.6752 76.7372V71.8116H63.6808Z" fill="#616161"/>
<path d="M73.4938 76.7344C73.4938 76.8895 73.5446 76.9967 73.6461 77.056C73.7476 77.1152 73.9478 77.1745 74.2523 77.2365C74.3313 77.245 74.3679 77.2986 74.3679 77.4002C74.3679 77.4312 74.3651 77.465 74.3623 77.4989C74.3595 77.5328 74.351 77.5694 74.3454 77.6089C74.1508 77.592 73.9224 77.5807 73.6574 77.5666C73.3923 77.5553 73.1554 77.5497 72.9468 77.5497C72.7296 77.5497 72.4984 77.5553 72.2531 77.5666C72.0077 77.5779 71.7681 77.592 71.5368 77.6089C71.5284 77.5694 71.5227 77.5328 71.5199 77.4989C71.5171 77.465 71.5143 77.4312 71.5143 77.4002C71.5143 77.2986 71.5538 77.245 71.6299 77.2365C71.9175 77.1829 72.1149 77.1237 72.2249 77.0616C72.3349 76.9996 72.3884 76.8895 72.3884 76.7344V73.9133H68.7283V76.7344C68.7283 76.8895 68.7791 76.9967 68.8806 77.056C68.9821 77.1152 69.1851 77.1745 69.4868 77.2365C69.5714 77.2535 69.6137 77.3071 69.6137 77.4002C69.6137 77.4312 69.6109 77.465 69.6081 77.4989C69.6053 77.5328 69.5996 77.5694 69.5912 77.6089C69.3881 77.592 69.1569 77.5807 68.8918 77.5666C68.6268 77.5553 68.3899 77.5497 68.1812 77.5497C67.9641 77.5497 67.7357 77.5553 67.4932 77.5666C67.2535 77.5779 67.011 77.592 66.7713 77.6089C66.7629 77.5694 66.7572 77.5328 66.7544 77.4989C66.7516 77.465 66.7488 77.4312 66.7488 77.4002C66.7488 77.2986 66.7883 77.245 66.8644 77.2365C67.1605 77.1829 67.3607 77.1237 67.4707 77.0616C67.5806 76.9996 67.6342 76.8895 67.6342 76.7344V70.8101C67.6342 70.6549 67.5863 70.5449 67.4932 70.4828C67.4002 70.4208 67.1971 70.3587 66.8869 70.2966C66.808 70.2882 66.7713 70.2261 66.7713 70.1104C66.7713 70.0794 66.7742 70.0484 66.777 70.0173C66.7798 69.9863 66.7854 69.9525 66.7939 69.913C66.9885 69.9299 67.214 69.9412 67.4707 69.9525C67.7273 69.9637 67.9613 69.9694 68.17 69.9694C68.3871 69.9694 68.6155 69.9637 68.858 69.9525C69.0977 69.9412 69.3346 69.9271 69.5686 69.913C69.5771 69.9525 69.5827 69.9863 69.5855 70.0173C69.5883 70.0484 69.5912 70.0794 69.5912 70.1104C69.5912 70.2261 69.5517 70.2882 69.4756 70.2966C69.1738 70.3446 68.9736 70.401 68.8749 70.4715C68.7791 70.5421 68.7283 70.6549 68.7283 70.8101V73.4224H72.3884V70.8101C72.3884 70.6775 72.3405 70.5703 72.2474 70.4885C72.1544 70.4067 71.957 70.3418 71.6525 70.2966C71.5679 70.2825 71.5227 70.2176 71.5227 70.1104C71.5227 70.0794 71.5256 70.0484 71.5284 70.0173C71.5312 69.9863 71.5368 69.9525 71.5453 69.913C71.7399 69.9299 71.9655 69.9412 72.2277 69.9525C72.4871 69.9637 72.724 69.9694 72.9327 69.9694C73.1498 69.9694 73.3782 69.9637 73.6151 69.9525C73.8519 69.9412 74.0916 69.9271 74.3313 69.913C74.3398 69.9525 74.3454 69.9863 74.3482 70.0173C74.351 70.0484 74.3538 70.0794 74.3538 70.1104C74.3538 70.2261 74.3144 70.2882 74.2382 70.2966C73.9337 70.3446 73.7335 70.401 73.6376 70.4715C73.5417 70.5421 73.491 70.6549 73.491 70.8101V76.7344H73.4938Z" fill="#616161"/>
<path d="M79.9174 74.7737H77.3175L76.5702 76.6526C76.5308 76.7541 76.511 76.8303 76.511 76.8867C76.511 77.0504 76.7479 77.166 77.2216 77.2366C77.2752 77.245 77.3119 77.2648 77.3316 77.3014C77.3513 77.3353 77.3598 77.3776 77.3598 77.4227C77.3598 77.4453 77.357 77.4735 77.3542 77.5046C77.3513 77.5356 77.3457 77.5694 77.3372 77.6089C77.1286 77.592 76.9058 77.5807 76.6718 77.5666C76.4377 77.5553 76.2093 77.5497 75.9837 77.5497C75.8286 77.5497 75.6679 77.5525 75.5072 77.561C75.3464 77.5694 75.1716 77.5835 74.994 77.6089C74.977 77.5299 74.9714 77.4679 74.9714 77.4227C74.9714 77.3691 74.9799 77.3212 74.9996 77.2817C75.0193 77.2422 75.0588 77.2196 75.1209 77.2112C75.3605 77.1717 75.541 77.1237 75.6623 77.0645C75.7835 77.0052 75.8709 76.915 75.9245 76.7908L78.733 70.0258C78.7951 69.8932 78.8684 69.8283 78.9558 69.8283C78.9699 69.8283 79.0179 69.8368 79.0968 69.8509L81.9166 76.8247C81.9646 76.9347 82.0689 77.0193 82.2325 77.0814C82.396 77.1435 82.5539 77.1858 82.709 77.2083C82.7569 77.2253 82.7936 77.245 82.819 77.2732C82.8472 77.3014 82.8585 77.3494 82.8585 77.4199C82.8585 77.4425 82.8556 77.4707 82.8528 77.5017C82.85 77.5328 82.8415 77.5666 82.8359 77.6061C82.5877 77.5892 82.3424 77.5779 82.1027 77.5638C81.8631 77.5525 81.6375 77.5469 81.426 77.5469C81.2089 77.5469 80.9607 77.5525 80.6787 77.5638C80.3996 77.5751 80.1458 77.5892 79.9202 77.6061C79.9117 77.5666 79.9061 77.5328 79.9033 77.5017C79.9005 77.4707 79.8976 77.4425 79.8976 77.4199C79.8976 77.3494 79.9117 77.3014 79.9371 77.2732C79.9653 77.245 79.9907 77.2337 80.0133 77.2337C80.2163 77.1942 80.3798 77.1491 80.5039 77.0983C80.628 77.0475 80.69 76.9714 80.69 76.8698C80.69 76.8162 80.6731 76.757 80.6421 76.6949L79.9174 74.7737ZM79.7313 74.297L78.6485 71.4392L77.5177 74.297H79.7313Z" fill="#616161"/>
<path d="M107.859 65.3767C107.859 65.3767 106.215 64.7363 103.367 63.5401C101.96 62.88 100.175 62.3637 98.1898 61.6218C96.216 60.8516 93.9065 60.2366 91.4222 59.4834C90.8019 59.3 90.1674 59.1082 89.5217 58.9163C88.8647 58.764 88.1964 58.6088 87.5168 58.4509C86.1633 58.1236 84.7618 57.7851 83.3237 57.4353C81.8828 57.1108 80.3798 56.8908 78.8599 56.603C77.3344 56.3407 75.7891 55.9993 74.1903 55.8413C72.5999 55.6354 70.9842 55.421 69.3458 55.2066C67.7075 55.0317 66.0382 54.9499 64.3632 54.8004C63.5257 54.7355 62.6854 54.6678 61.8423 54.6001C60.9992 54.5577 60.1504 54.5606 59.2988 54.5295C57.5984 54.4844 55.8925 54.4364 54.1865 54.3941C52.4748 54.4393 50.7604 54.4844 49.0572 54.5323C48.1972 54.5606 47.3315 54.5662 46.4855 54.6057C45.648 54.6734 44.8134 54.7411 43.9815 54.8088C42.315 54.9583 40.6626 55.0401 39.0271 55.2122C37.3916 55.4266 35.7758 55.641 34.1826 55.8498C32.5838 56.005 31.0385 56.3491 29.513 56.6115C27.9903 56.8993 26.4901 57.1165 25.0464 57.4437C23.6083 57.7907 22.2097 58.1321 20.8533 58.4593C20.1737 58.6173 19.5083 58.7725 18.8512 58.9248C18.2055 59.1166 17.571 59.3057 16.9507 59.4947C14.4664 60.2479 12.157 60.8601 10.1746 61.6331C8.18384 62.375 6.39607 62.8969 5.00026 63.5486C2.16633 64.7391 0.513916 65.3823 0.513916 65.3823C0.513916 65.3823 2.0197 64.409 4.71264 62.7756C6.04077 61.9067 7.74677 61.0999 9.68963 60.1153C10.1775 59.8727 10.6794 59.6188 11.1982 59.3621C11.4577 59.2323 11.7199 59.1025 11.985 58.9671C12.2557 58.8515 12.532 58.7358 12.8112 58.6173C13.9363 58.1575 15.115 57.6751 16.3472 57.1701C16.9648 56.919 17.5964 56.6623 18.2393 56.4027C18.8935 56.1799 19.559 55.957 20.2358 55.7285C21.5949 55.2884 23.0048 54.837 24.4514 54.3716C25.9064 53.9343 27.4207 53.5986 28.9603 53.1951C30.4999 52.8002 32.079 52.4024 33.7061 52.1513C35.3275 51.8692 36.9799 51.5815 38.6492 51.2937C40.3298 51.0455 42.0499 50.9101 43.7757 50.7239C44.6385 50.6364 45.507 50.5461 46.3784 50.4615C47.2412 50.3938 48.0985 50.3882 48.9585 50.3515C50.6955 50.2922 52.441 50.2358 54.1865 50.1766C55.9376 50.2358 57.6887 50.2951 59.4313 50.3543C60.3027 50.3882 61.174 50.3994 62.0397 50.4671C62.9025 50.5546 63.7654 50.6421 64.6255 50.7295C66.3399 50.9129 68.0487 51.0539 69.7237 51.2994C71.393 51.5871 73.0426 51.8749 74.6668 52.157C76.2911 52.4081 77.8673 52.8087 79.4126 53.2036C80.9522 53.607 82.4693 53.9427 83.9215 54.3772C85.3653 54.8427 86.7724 55.2969 88.1343 55.737C88.8111 55.9655 89.4766 56.1883 90.1308 56.4112C90.7737 56.6736 91.4025 56.9303 92.0201 57.1785C93.2523 57.6835 94.4338 58.1659 95.5561 58.6286C95.8381 58.7471 96.1144 58.8627 96.3851 58.9784C96.6502 59.111 96.9153 59.2436 97.1747 59.3734C97.6935 59.6329 98.1983 59.8868 98.6861 60.1322C100.635 61.1168 102.346 61.9293 103.66 62.7897C106.345 64.4034 107.859 65.3767 107.859 65.3767Z" fill="#20335B"/>
<path d="M44.021 41.8994H48.6793V37.239H44.021V41.8994ZM51.7642 41.8994H56.4226V37.239H51.7642V41.8994ZM106.348 52.3178L86.434 32.6914V12.5628L76.8409 2.96543V23.2379L57.8269 4.49447L54.0962 0.818573L50.3656 4.49447L1.83923 52.3178L54.0934 16.092L106.348 52.3178ZM54.1865 4.833V12.67L21.2706 36.5535L54.1865 4.833ZM44.021 34.5646H48.6793V29.9041H44.021V34.5646ZM51.7642 34.5646H56.4226V29.9041H51.7642V34.5646ZM59.5047 34.5646H64.163V29.9041H59.5047V34.5646ZM59.5047 41.8994H64.163V37.239H59.5047V41.8994Z" fill="#20335B"/>
</svg>
