<svg width="159" height="115" viewBox="0 0 159 115" fill="none" xmlns="http://www.w3.org/2000/svg">
<path d="M34.7667 99.6565C33.8078 99.6565 32.9652 99.5063 32.243 99.2057C31.5207 98.9052 30.923 98.4961 30.4498 97.9701C29.9766 97.4483 29.6196 96.8305 29.3872 96.1251C29.1506 95.4154 29.0344 94.6557 29.0344 93.8375C29.0344 93.1571 29.1506 92.4726 29.3872 91.7838C29.6196 91.095 29.9766 90.4689 30.4498 89.9095C30.923 89.3502 31.5207 88.8993 32.243 88.5445C32.9652 88.1897 33.8037 88.0186 34.7667 88.0186C35.1444 88.0186 35.4889 88.0269 35.8044 88.0436C36.1198 88.0603 36.4187 88.0895 36.7051 88.1313C36.9915 88.173 37.2696 88.2231 37.5477 88.2857C37.8258 88.3483 38.1081 88.4193 38.4069 88.5028C38.4194 88.8117 38.4567 89.1915 38.5273 89.6424C38.5979 90.0932 38.6892 90.544 38.8013 91.0074C38.7224 91.0533 38.6311 91.0783 38.5273 91.0783C38.436 91.0783 38.353 91.0658 38.2783 91.0449C38.2035 91.0241 38.1537 90.9573 38.133 90.8529C37.9254 90.0932 37.6017 89.5547 37.1534 89.2291C36.7051 88.9077 36.0617 88.7449 35.2149 88.7449C34.5052 88.7449 33.8784 88.8618 33.3346 89.0914C32.7909 89.3209 32.3343 89.6424 31.9607 90.0598C31.5871 90.4772 31.309 90.974 31.1181 91.5626C30.9271 92.1511 30.8358 92.794 30.8358 93.4953C30.8358 94.2884 30.9562 95.0189 31.1969 95.6868C31.4377 96.3547 31.7615 96.9307 32.1682 97.4108C32.575 97.895 33.0482 98.2665 33.592 98.5336C34.1357 98.7966 34.7168 98.9302 35.3353 98.9302C35.8251 98.9302 36.2402 98.8801 36.5806 98.7841C36.9168 98.6881 37.199 98.5462 37.4232 98.3625C37.6473 98.1788 37.8341 97.9493 37.9877 97.6821C38.1413 97.4149 38.2866 97.106 38.4235 96.7596C38.5024 96.5884 38.6394 96.5008 38.8345 96.5008C38.9714 96.5008 39.0794 96.53 39.1624 96.5884C39.0254 96.9892 38.8884 97.4358 38.7514 97.9159C38.6145 98.4001 38.4982 98.8843 38.4069 99.3643C37.8466 99.4562 37.2738 99.5271 36.6926 99.5814C36.1032 99.6315 35.464 99.6565 34.7667 99.6565Z" fill="white"/>
<path d="M48.6304 90.9575L43.446 97.7408V98.2417C43.446 98.3794 43.4585 98.488 43.4875 98.5715C43.5166 98.6508 43.5664 98.7134 43.6328 98.7635C43.6992 98.8136 43.7947 98.8511 43.9068 98.8845C44.0188 98.9179 44.1683 98.9555 44.3509 98.9889C44.4754 99.0223 44.5377 99.1058 44.5377 99.231C44.5377 99.2769 44.5335 99.327 44.5294 99.3771C44.5252 99.4272 44.5169 99.4814 44.5045 99.5399C44.2056 99.5148 43.8985 99.4981 43.5788 99.4773C43.2592 99.4606 42.9438 99.4522 42.6366 99.4522C42.317 99.4522 41.9808 99.4606 41.6238 99.4773C41.271 99.494 40.914 99.5148 40.5612 99.5399C40.5487 99.4814 40.5404 99.4272 40.5363 99.3771C40.5321 99.327 40.528 99.2769 40.528 99.231C40.528 99.0807 40.5861 99.0014 40.6982 98.9889C41.134 98.9096 41.4287 98.8219 41.5906 98.7301C41.7525 98.6382 41.8313 98.4754 41.8313 98.2458V89.4798C41.8313 89.2502 41.7608 89.0874 41.6238 88.9956C41.4868 88.9037 41.188 88.8119 40.7314 88.7201C40.6152 88.7075 40.5612 88.6157 40.5612 88.4446C40.5612 88.3986 40.5653 88.3527 40.5695 88.3068C40.5736 88.2609 40.5819 88.2108 40.5944 88.1523C40.8808 88.1774 41.2129 88.1941 41.5906 88.2108C41.9683 88.2275 42.3128 88.2358 42.62 88.2358C42.9396 88.2358 43.2758 88.2275 43.6328 88.2108C43.9856 88.1941 44.3343 88.1732 44.6788 88.1523C44.6913 88.2108 44.6996 88.2609 44.7037 88.3068C44.7079 88.3527 44.712 88.3986 44.712 88.4446C44.712 88.6157 44.6539 88.7075 44.5418 88.7201C44.0977 88.791 43.803 88.8745 43.6577 88.9789C43.5166 89.0832 43.4419 89.2502 43.4419 89.4798V96.4509L48.6221 89.6676V89.4798C48.6221 89.2251 48.5681 89.0498 48.4602 88.9538C48.3523 88.8578 48.1157 88.7785 47.7463 88.7201C47.6217 88.6992 47.5553 88.6032 47.5553 88.4446C47.5553 88.3986 47.5595 88.3527 47.5636 88.3068C47.5678 88.2609 47.5761 88.2108 47.5885 88.1523C47.8749 88.1774 48.1738 88.1941 48.4893 88.2108C48.8047 88.2275 49.116 88.2358 49.4232 88.2358C49.7428 88.2358 50.079 88.2275 50.4277 88.2108C50.7764 88.1941 51.1292 88.1732 51.482 88.1523C51.4945 88.2108 51.5028 88.2609 51.5069 88.3068C51.5111 88.3527 51.5152 88.3986 51.5152 88.4446C51.5152 88.6157 51.4571 88.7075 51.345 88.7201C50.8967 88.791 50.602 88.8745 50.4609 88.9789C50.3198 89.0832 50.2451 89.2502 50.2451 89.4798V98.2458C50.2451 98.4754 50.3198 98.6341 50.4692 98.7217C50.6186 98.8094 50.9133 98.8971 51.3616 98.9889C51.4779 99.0014 51.5318 99.0807 51.5318 99.231C51.5318 99.2769 51.5277 99.327 51.5235 99.3771C51.5194 99.4272 51.5069 99.4814 51.4986 99.5399C51.2122 99.5148 50.876 99.4981 50.4858 99.4773C50.0956 99.4606 49.747 99.4522 49.4398 99.4522C49.1202 99.4522 48.7798 99.4606 48.4187 99.4773C48.0576 99.494 47.7048 99.5148 47.3644 99.5399C47.3519 99.4814 47.3436 99.4272 47.3395 99.3771C47.3353 99.327 47.3312 99.2769 47.3312 99.231C47.3312 99.0807 47.3893 99.0014 47.5014 98.9889C47.9248 98.9096 48.2153 98.8219 48.3772 98.7301C48.5391 98.6382 48.6179 98.4754 48.6179 98.2458V90.9575H48.6304Z" fill="white"/>
<path d="M56.1476 93.0278H57.7083C58.3267 93.0278 58.8663 93.1029 59.3312 93.2532C59.7961 93.4034 60.1822 93.608 60.4893 93.8668C60.7965 94.1256 61.0289 94.4345 61.1825 94.7893C61.3361 95.1441 61.415 95.5365 61.415 95.9623C61.415 96.4465 61.3361 96.9015 61.1825 97.3273C61.0289 97.7531 60.7965 98.1246 60.4893 98.4418C60.1822 98.7591 59.7961 99.0054 59.3312 99.1849C58.8663 99.3643 58.3267 99.452 57.7083 99.452H55.2219C54.9023 99.452 54.5619 99.4604 54.2008 99.4771C53.8397 99.4938 53.4993 99.5146 53.1797 99.5397C53.1548 99.4228 53.1465 99.3393 53.1465 99.2809C53.1465 99.0847 53.2046 98.9803 53.3167 98.972C53.7733 98.9135 54.0929 98.8342 54.2672 98.7299C54.4457 98.6255 54.5329 98.4585 54.5329 98.2289V89.4629C54.5329 89.2333 54.4499 89.0747 54.2838 88.987C54.1178 88.8994 53.794 88.8117 53.3125 88.7199C53.1963 88.7074 53.1424 88.6113 53.1424 88.4277C53.1424 88.3692 53.1465 88.3233 53.1507 88.2816C53.1548 88.2398 53.1631 88.1981 53.1756 88.1522C53.6654 88.1856 54.0805 88.2106 54.4125 88.2231C54.7446 88.2357 55.0434 88.2398 55.3049 88.2398H57.9656C58.4803 88.2398 58.9245 88.2231 59.3022 88.1897C59.6799 88.1563 59.9331 88.1396 60.0576 88.1396C60.2071 88.1396 60.3067 88.2357 60.3565 88.4235C60.4063 88.6155 60.452 88.8409 60.4852 89.1039C60.5184 89.3669 60.5599 89.6507 60.6055 89.9513C60.6512 90.2518 60.7384 90.5023 60.8629 90.711C60.7716 90.782 60.6678 90.8154 60.5557 90.8154C60.4063 90.8154 60.3108 90.7653 60.2652 90.6609C60.1282 90.3729 59.9954 90.1224 59.8708 89.9012C59.7463 89.68 59.601 89.5046 59.435 89.3669C59.269 89.2291 59.0697 89.1248 58.8331 89.058C58.6007 88.987 58.3101 88.9536 57.9656 88.9536H56.1476V93.0278ZM56.1476 93.7374V98.7424H57.1272C57.6087 98.7424 58.0071 98.6756 58.3267 98.5462C58.6464 98.4126 58.9037 98.2289 59.0988 97.9952C59.2939 97.7614 59.4309 97.4817 59.5097 97.1603C59.5886 96.8389 59.6301 96.4883 59.6301 96.1084C59.6301 95.3153 59.4143 94.7225 58.9784 94.3301C58.5426 93.9378 57.9241 93.7416 57.1272 93.7416H56.1476V93.7374Z" fill="white"/>
<path d="M70.9909 90.9575L65.8107 97.7408V98.2417C65.8107 98.3794 65.8231 98.488 65.8522 98.5715C65.8812 98.6508 65.931 98.7134 65.9975 98.7635C66.0639 98.8136 66.1593 98.8511 66.2714 98.8845C66.3835 98.9179 66.5329 98.9555 66.7156 98.9889C66.8401 99.0223 66.9023 99.1058 66.9023 99.231C66.9023 99.2769 66.8982 99.327 66.894 99.3771C66.8899 99.4272 66.8816 99.4814 66.8691 99.5399C66.5703 99.5148 66.2631 99.4981 65.9435 99.4773C65.6239 99.4606 65.3084 99.4522 65.0013 99.4522C64.6816 99.4522 64.3454 99.4606 63.9885 99.4773C63.6356 99.494 63.2787 99.5148 62.9258 99.5399C62.9134 99.4814 62.9051 99.4272 62.9009 99.3771C62.8968 99.327 62.8926 99.2769 62.8926 99.231C62.8926 99.0807 62.9508 99.0014 63.0628 98.9889C63.4987 98.9096 63.7934 98.8219 63.9553 98.7301C64.1171 98.6382 64.196 98.4754 64.196 98.2458V89.4798C64.196 89.2502 64.1254 89.0874 63.9885 88.9956C63.8515 88.9037 63.5526 88.8119 63.096 88.7201C62.9798 88.7075 62.9258 88.6157 62.9258 88.4446C62.9258 88.3986 62.93 88.3527 62.9342 88.3068C62.9383 88.2609 62.9466 88.2108 62.9591 88.1523C63.2455 88.1774 63.5775 88.1941 63.9553 88.2108C64.333 88.2275 64.6775 88.2358 64.9847 88.2358C65.3043 88.2358 65.6405 88.2275 65.9975 88.2108C66.3503 88.1941 66.699 88.1732 67.0435 88.1523C67.0559 88.2108 67.0642 88.2609 67.0684 88.3068C67.0725 88.3527 67.0767 88.3986 67.0767 88.4446C67.0767 88.6157 67.0186 88.7075 66.9065 88.7201C66.4624 88.791 66.1676 88.8745 66.0224 88.9789C65.8812 89.0832 65.8065 89.2502 65.8065 89.4798V96.4509L70.9868 89.6676V89.4798C70.9868 89.2251 70.9328 89.0498 70.8249 88.9538C70.717 88.8578 70.4804 88.7785 70.1109 88.7201C69.9864 88.6992 69.92 88.6032 69.92 88.4446C69.92 88.3986 69.9241 88.3527 69.9283 88.3068C69.9324 88.2609 69.9407 88.2108 69.9532 88.1523C70.2396 88.1774 70.5385 88.1941 70.8539 88.2108C71.1694 88.2275 71.4807 88.2358 71.7879 88.2358C72.1075 88.2358 72.4437 88.2275 72.7924 88.2108C73.141 88.1941 73.4939 88.1732 73.8467 88.1523C73.8591 88.2108 73.8674 88.2609 73.8716 88.3068C73.8757 88.3527 73.8799 88.3986 73.8799 88.4446C73.8799 88.6157 73.8218 88.7075 73.7097 88.7201C73.2614 88.791 72.9667 88.8745 72.8256 88.9789C72.6844 89.0832 72.6097 89.2502 72.6097 89.4798V98.2458C72.6097 98.4754 72.6845 98.6341 72.8339 98.7217C72.9833 98.8094 73.278 98.8971 73.7263 98.9889C73.8425 99.0014 73.8965 99.0807 73.8965 99.231C73.8965 99.2769 73.8923 99.327 73.8882 99.3771C73.884 99.4272 73.8716 99.4814 73.8633 99.5399C73.5769 99.5148 73.2407 99.4981 72.8505 99.4773C72.4603 99.4606 72.1116 99.4522 71.8045 99.4522C71.4849 99.4522 71.1445 99.4606 70.7834 99.4773C70.4222 99.494 70.0694 99.5148 69.7291 99.5399C69.7166 99.4814 69.7083 99.4272 69.7042 99.3771C69.7 99.327 69.6959 99.2769 69.6959 99.231C69.6959 99.0807 69.754 99.0014 69.866 98.9889C70.2894 98.9096 70.58 98.8219 70.7419 98.7301C70.9037 98.6382 70.9826 98.4754 70.9826 98.2458V90.9575H70.9909Z" fill="white"/>
<path d="M78.5039 94.5806V98.1162C78.5039 98.3792 78.6284 98.5671 78.8733 98.6756C79.1182 98.7841 79.5001 98.876 80.0148 98.9428C80.1518 98.9678 80.2224 99.0638 80.2224 99.235C80.2224 99.2809 80.2182 99.3268 80.214 99.3727C80.2099 99.4186 80.2016 99.4687 80.1891 99.5272C79.8571 99.5021 79.4794 99.4854 79.056 99.4645C78.6326 99.4478 78.176 99.4395 77.6821 99.4395C77.3832 99.4395 77.047 99.4478 76.6693 99.4645C76.2915 99.4812 75.9387 99.5021 75.6066 99.5272C75.5942 99.4687 75.5859 99.4186 75.5817 99.3727C75.5776 99.3268 75.5734 99.285 75.5734 99.2516C75.5734 99.0805 75.6315 98.9887 75.7436 98.9761C76.2002 98.8843 76.5074 98.7967 76.6609 98.709C76.8145 98.6213 76.8934 98.4669 76.8934 98.2331V89.4504C76.8934 89.2208 76.8062 89.0538 76.6277 88.9495C76.4493 88.8451 76.1338 88.7658 75.6772 88.7074C75.561 88.6948 75.507 88.5905 75.507 88.3985C75.507 88.34 75.5195 88.2565 75.5402 88.1396C75.8598 88.1647 76.2002 88.1814 76.5613 88.1981C76.9224 88.2148 77.2628 88.2231 77.5824 88.2231H80.0024C81.2393 88.2231 82.1649 88.5153 82.7834 89.1039C83.4019 89.6925 83.709 90.448 83.709 91.3831C83.709 91.7504 83.626 92.1261 83.46 92.506C83.294 92.8858 83.0532 93.2281 82.7377 93.5329C82.4223 93.8376 82.0363 94.088 81.5714 94.2842C81.1065 94.4804 80.5835 94.5764 80.0024 94.5764H78.5039V94.5806ZM79.4129 93.8752C80.2141 93.8752 80.8325 93.6956 81.2642 93.3408C81.7 92.986 81.9159 92.3807 81.9159 91.5292C81.9159 91.1744 81.8744 90.8404 81.7955 90.5274C81.7166 90.2185 81.5797 89.943 81.3846 89.7092C81.1895 89.4754 80.9321 89.2876 80.6125 89.1498C80.2929 89.0121 79.8903 88.9411 79.4129 88.9411H78.5039V93.8752H79.4129Z" fill="white"/>
<path d="M90.7904 99.6565C89.8315 99.6565 88.9889 99.5063 88.2667 99.2057C87.5444 98.9052 86.9467 98.4961 86.4735 97.9701C86.0003 97.4483 85.6433 96.8305 85.4109 96.1251C85.1743 95.4154 85.0581 94.6557 85.0581 93.8375C85.0581 93.1571 85.1743 92.4726 85.4109 91.7838C85.6433 91.095 86.0003 90.4689 86.4735 89.9095C86.9467 89.3502 87.5444 88.8993 88.2667 88.5445C88.9889 88.1897 89.8274 88.0186 90.7904 88.0186C91.1681 88.0186 91.5126 88.0269 91.8281 88.0436C92.1435 88.0603 92.4424 88.0895 92.7288 88.1313C93.0152 88.173 93.2933 88.2231 93.5714 88.2857C93.8495 88.3483 94.1318 88.4193 94.4306 88.5028C94.4431 88.8117 94.4804 89.1915 94.551 89.6424C94.6216 90.0932 94.7129 90.544 94.825 91.0074C94.7461 91.0533 94.6548 91.0783 94.551 91.0783C94.4597 91.0783 94.3767 91.0658 94.302 91.0449C94.2273 91.0241 94.1774 90.9573 94.1567 90.8529C93.9491 90.0932 93.6254 89.5547 93.1771 89.2291C92.7288 88.9077 92.0854 88.7449 91.2387 88.7449C90.5289 88.7449 89.9021 88.8618 89.3583 89.0914C88.8146 89.3209 88.358 89.6424 87.9844 90.0598C87.6108 90.4772 87.3327 90.974 87.1418 91.5626C86.9509 92.1511 86.8595 92.794 86.8595 93.4953C86.8595 94.2884 86.9799 95.0189 87.2207 95.6868C87.4614 96.3547 87.7852 96.9307 88.192 97.4108C88.5987 97.895 89.0719 98.2665 89.6157 98.5336C90.1594 98.7966 90.7405 98.9302 91.359 98.9302C91.8488 98.9302 92.2639 98.8801 92.6043 98.7841C92.9405 98.6881 93.2227 98.5462 93.4469 98.3625C93.671 98.1788 93.8578 97.9493 94.0114 97.6821C94.165 97.4149 94.3103 97.106 94.4472 96.7596C94.5261 96.5884 94.6631 96.5008 94.8582 96.5008C94.9952 96.5008 95.1031 96.53 95.1861 96.5884C95.0491 96.9892 94.9121 97.4358 94.7752 97.9159C94.6382 98.4001 94.522 98.8843 94.4306 99.3643C93.8703 99.4562 93.2975 99.5271 92.7163 99.5814C92.1311 99.6315 91.4877 99.6565 90.7904 99.6565Z" fill="white"/>
<path d="M104.932 90.1809C104.671 90.1809 104.459 90.2476 104.297 90.3812C104.135 90.5148 103.998 90.686 103.878 90.8988C103.758 91.1117 103.645 91.3497 103.542 91.6168C103.438 91.884 103.318 92.1511 103.172 92.4183C103.031 92.6896 102.857 92.9442 102.649 93.1864C102.442 93.4285 102.176 93.6372 101.844 93.8083V93.8417C102.222 93.9127 102.55 94.0087 102.832 94.1339C103.11 94.2592 103.351 94.4053 103.546 94.5639C103.741 94.7225 103.911 94.9062 104.061 95.1065C104.21 95.3069 104.347 95.5407 104.471 95.8037C104.596 96.0666 104.725 96.3714 104.849 96.7178C104.974 97.0643 105.119 97.465 105.277 97.9242C105.347 98.1329 105.418 98.2999 105.501 98.4335C105.58 98.567 105.671 98.6714 105.767 98.7507C105.862 98.83 105.966 98.8885 106.065 98.9219C106.165 98.9553 106.277 98.9928 106.393 99.0262C106.497 99.0513 106.547 99.1306 106.547 99.2683C106.547 99.3142 106.543 99.3643 106.539 99.4144C106.534 99.4645 106.522 99.5188 106.514 99.5772C106.252 99.5522 105.987 99.5355 105.725 99.5146C105.464 99.4979 105.21 99.4896 104.97 99.4896C104.729 99.4896 104.525 99.4645 104.359 99.4186C104.193 99.3727 104.061 99.3017 103.957 99.2099C103.853 99.1181 103.77 99.0012 103.708 98.8634C103.645 98.7257 103.591 98.5629 103.546 98.3792C103.33 97.5402 103.127 96.8639 102.936 96.3505C102.745 95.837 102.516 95.4196 102.242 95.0982C102.093 94.927 101.939 94.7851 101.778 94.6766C101.616 94.5681 101.437 94.4804 101.238 94.4178C101.039 94.3552 100.81 94.3134 100.561 94.2884C100.308 94.2675 100.022 94.255 99.7022 94.255H99.478V98.2248C99.478 98.4543 99.5486 98.6171 99.6939 98.709C99.835 98.8008 100.101 98.8885 100.491 98.9678C100.549 98.9803 100.595 99.0012 100.628 99.0387C100.661 99.0721 100.678 99.1348 100.678 99.2308C100.678 99.2767 100.673 99.3226 100.669 99.3685C100.665 99.4144 100.657 99.4645 100.644 99.523C100.279 99.4979 99.9305 99.4812 99.5984 99.4603C99.2663 99.4436 98.9592 99.4353 98.6728 99.4353C98.3739 99.4353 98.0418 99.4436 97.6683 99.4603C97.2947 99.477 96.9377 99.4979 96.5974 99.523C96.5849 99.4645 96.5766 99.4144 96.5725 99.3685C96.5683 99.3226 96.5641 99.2809 96.5641 99.2475C96.5641 99.0763 96.6223 98.9845 96.7343 98.972C97.1702 98.8801 97.4649 98.7925 97.6268 98.7048C97.7886 98.6171 97.8675 98.4627 97.8675 98.2289V89.4462C97.8675 89.2166 97.7886 89.0538 97.6268 88.9536C97.4649 88.8576 97.1702 88.7741 96.7343 88.7031C96.6181 88.6906 96.5641 88.5946 96.5641 88.4109C96.5641 88.3775 96.5683 88.3358 96.5725 88.2899C96.5766 88.244 96.5849 88.1939 96.5974 88.1354C96.9294 88.1605 97.2822 88.1772 97.66 88.1939C98.0377 88.2106 98.3698 88.2189 98.6562 88.2189C98.955 88.2189 99.2871 88.2106 99.6524 88.1939C100.018 88.1772 100.383 88.1563 100.752 88.1354C100.765 88.1939 100.773 88.244 100.777 88.2899C100.781 88.3358 100.786 88.3775 100.786 88.4109C100.786 88.5946 100.727 88.6948 100.615 88.7031C100.18 88.7741 99.8848 88.8576 99.7229 88.9536C99.561 89.0496 99.4822 89.2166 99.4822 89.4462V93.5704H99.8267C100.524 93.5704 101.072 93.4326 101.475 93.1571C101.873 92.8816 102.197 92.5393 102.433 92.1303C102.674 91.7212 102.865 91.2745 103.01 90.7945C103.151 90.3103 103.318 89.8678 103.5 89.4587C103.683 89.0496 103.919 88.7073 104.214 88.4318C104.505 88.1563 104.92 88.0186 105.459 88.0186C105.584 88.0186 105.708 88.0311 105.829 88.0603C105.949 88.0895 106.036 88.1187 106.094 88.1563C106.186 88.2148 106.231 88.34 106.231 88.5362C106.231 88.699 106.206 88.8743 106.161 89.0705C106.115 89.2667 106.053 89.4504 105.982 89.6215C105.908 89.7926 105.825 89.9387 105.733 90.0598C105.642 90.1809 105.547 90.2393 105.443 90.2393C105.351 90.2393 105.277 90.2268 105.219 90.2059C105.148 90.1934 105.057 90.1809 104.932 90.1809Z" fill="white"/>
<path d="M114.454 95.3405H110.627L109.527 98.1206C109.469 98.2709 109.44 98.3836 109.44 98.4671C109.44 98.7092 109.789 98.8803 110.486 98.9847C110.565 98.9972 110.619 99.0264 110.648 99.0807C110.677 99.1308 110.689 99.1934 110.689 99.2602C110.689 99.2936 110.685 99.3353 110.681 99.3813C110.677 99.4272 110.669 99.4773 110.656 99.5357C110.349 99.5107 110.021 99.494 109.677 99.4731C109.332 99.4564 108.996 99.448 108.664 99.448C108.436 99.448 108.199 99.4522 107.962 99.4647C107.726 99.4773 107.468 99.4981 107.207 99.5357C107.182 99.4188 107.174 99.327 107.174 99.2602C107.174 99.1809 107.186 99.1099 107.215 99.0515C107.244 98.9931 107.302 98.9597 107.394 98.9471C107.746 98.8887 108.012 98.8177 108.191 98.7301C108.369 98.6424 108.498 98.5088 108.577 98.3252L112.711 88.3152C112.802 88.119 112.91 88.0229 113.039 88.0229C113.06 88.0229 113.13 88.0355 113.246 88.0564L117.397 98.3753C117.468 98.5381 117.621 98.6633 117.862 98.7551C118.103 98.8469 118.335 98.9096 118.564 98.943C118.634 98.968 118.688 98.9972 118.725 99.039C118.767 99.0807 118.784 99.1517 118.784 99.256C118.784 99.2894 118.779 99.3312 118.775 99.3771C118.771 99.423 118.759 99.4731 118.75 99.5315C118.385 99.5065 118.024 99.4898 117.671 99.4689C117.318 99.4522 116.986 99.4439 116.675 99.4439C116.355 99.4439 115.99 99.4522 115.575 99.4689C115.164 99.4856 114.79 99.5065 114.458 99.5315C114.446 99.4731 114.438 99.423 114.433 99.3771C114.429 99.3312 114.425 99.2894 114.425 99.256C114.425 99.1517 114.446 99.0807 114.483 99.039C114.525 98.9972 114.562 98.9805 114.595 98.9805C114.894 98.9221 115.135 98.8553 115.318 98.7802C115.5 98.705 115.592 98.5923 115.592 98.442C115.592 98.3627 115.567 98.2751 115.521 98.1832L114.454 95.3405ZM114.18 94.6351L112.586 90.4065L110.922 94.6351H114.18Z" fill="white"/>
<path d="M122.864 94.547C122.955 94.4885 123.055 94.4384 123.163 94.3925C123.271 94.3466 123.37 94.3132 123.462 94.2881C122.922 94.1963 122.482 94.046 122.133 93.8373C121.785 93.6286 121.511 93.3907 121.311 93.1193C121.112 92.848 120.975 92.5683 120.9 92.2719C120.826 91.9797 120.788 91.7042 120.788 91.4538C120.788 90.9821 120.867 90.548 121.029 90.1514C121.191 89.7548 121.428 89.4167 121.751 89.1329C122.071 88.8532 122.465 88.6278 122.926 88.4692C123.391 88.3064 123.922 88.227 124.532 88.227H127.002C127.334 88.227 127.683 88.2187 128.048 88.202C128.413 88.1853 128.77 88.1644 129.111 88.1436C129.123 88.202 129.132 88.2521 129.136 88.298C129.14 88.3439 129.144 88.3857 129.144 88.4191C129.144 88.6027 129.086 88.7029 128.974 88.7113C128.492 88.7697 128.169 88.8532 128.003 88.9617C127.836 89.0702 127.753 89.2372 127.753 89.4543V98.237C127.753 98.4666 127.841 98.6294 128.019 98.7296C128.198 98.8256 128.501 98.9091 128.936 98.9801C129.061 99.0051 129.123 99.097 129.123 99.2556C129.123 99.289 129.119 99.3307 129.115 99.3766C129.111 99.4226 129.102 99.4726 129.09 99.5311C128.746 99.506 128.38 99.4893 127.99 99.4685C127.6 99.4518 127.26 99.4434 126.961 99.4434C126.537 99.4434 126.106 99.4518 125.666 99.4685C125.226 99.4852 124.852 99.506 124.541 99.5311C124.528 99.4726 124.52 99.4226 124.516 99.3766C124.512 99.3307 124.508 99.2848 124.508 99.2389C124.508 99.0677 124.578 98.9676 124.715 98.9467C125.197 98.8882 125.554 98.8131 125.786 98.7213C126.018 98.6294 126.139 98.4583 126.139 98.2037V94.4092H126.002C125.728 94.4092 125.5 94.4176 125.325 94.4342C125.147 94.4509 124.997 94.4802 124.869 94.5219C124.744 94.5636 124.632 94.6096 124.532 94.668C124.437 94.7264 124.333 94.7932 124.234 94.8767C124.072 95.002 123.902 95.1898 123.719 95.4361C123.536 95.6824 123.345 95.9662 123.154 96.2918C122.959 96.6132 122.764 96.9639 122.561 97.3437C122.362 97.7236 122.171 98.1076 121.984 98.5C121.822 98.8465 121.652 99.097 121.469 99.2598C121.286 99.4226 120.971 99.5019 120.527 99.5019C120.299 99.5019 120.054 99.5102 119.796 99.5269C119.539 99.5436 119.277 99.5645 119.016 99.5895C119.004 99.5311 118.995 99.4768 118.991 99.4267C118.987 99.3766 118.983 99.3265 118.983 99.2806C118.983 99.1429 119.033 99.0636 119.136 99.0385C119.365 98.9801 119.58 98.8674 119.788 98.692C119.996 98.5209 120.199 98.2454 120.406 97.8655C120.714 97.277 120.971 96.8011 121.179 96.4337C121.386 96.0664 121.573 95.7658 121.743 95.5363C121.913 95.3067 122.083 95.1188 122.249 94.9769C122.42 94.8266 122.623 94.6847 122.864 94.547ZM126.139 93.7037V88.9409H125.109C124.217 88.9409 123.569 89.137 123.171 89.5294C122.772 89.9218 122.569 90.5187 122.569 91.3244C122.569 92.0507 122.785 92.6268 123.221 93.0609C123.657 93.4908 124.275 93.7079 125.072 93.7079H126.139V93.7037Z" fill="white"/>
<path d="M46.8206 114.266C45.8618 114.266 45.0192 114.116 44.2969 113.816C43.5747 113.515 42.977 113.106 42.5038 112.58C42.0306 112.058 41.6736 111.44 41.4412 110.735C41.2046 110.025 41.0883 109.266 41.0883 108.447C41.0883 107.767 41.2046 107.082 41.4412 106.394C41.6736 105.705 42.0306 105.079 42.5038 104.519C42.977 103.96 43.5747 103.509 44.2969 103.154C45.0192 102.8 45.8576 102.628 46.8206 102.628C47.1984 102.628 47.5429 102.637 47.8583 102.653C48.1738 102.67 48.4727 102.699 48.7591 102.741C49.0455 102.783 49.3236 102.833 49.6017 102.896C49.8798 102.958 50.1621 103.029 50.4609 103.113C50.4734 103.422 50.5107 103.801 50.5813 104.252C50.6519 104.703 50.7432 105.154 50.8552 105.617C50.7764 105.663 50.6851 105.688 50.5813 105.688C50.49 105.688 50.407 105.676 50.3322 105.655C50.2575 105.634 50.2077 105.567 50.187 105.463C49.9794 104.703 49.6557 104.165 49.2074 103.839C48.7591 103.518 48.1157 103.355 47.2689 103.355C46.5591 103.355 45.9324 103.472 45.3886 103.701C44.8448 103.931 44.3883 104.252 44.0147 104.67C43.6411 105.087 43.363 105.584 43.1721 106.172C42.9811 106.761 42.8898 107.404 42.8898 108.105C42.8898 108.898 43.0102 109.629 43.2509 110.297C43.4917 110.965 43.8154 111.541 44.2222 112.021C44.629 112.505 45.1022 112.876 45.646 113.143C46.1897 113.406 46.7708 113.54 47.3893 113.54C47.8791 113.54 48.2942 113.49 48.6345 113.394C48.9708 113.298 49.253 113.156 49.4772 112.972C49.7013 112.789 49.8881 112.559 50.0417 112.292C50.1953 112.025 50.3405 111.716 50.4775 111.369C50.5564 111.198 50.6934 111.111 50.8884 111.111C51.0254 111.111 51.1333 111.14 51.2164 111.198C51.0794 111.599 50.9424 112.046 50.8054 112.526C50.6685 113.01 50.5522 113.494 50.4609 113.974C49.9006 114.066 49.3277 114.137 48.7466 114.191C48.1572 114.241 47.518 114.266 46.8206 114.266Z" fill="white"/>
<path d="M58.1607 103.551V112.768C58.1607 113.031 58.2686 113.219 58.4886 113.328C58.7045 113.436 59.0739 113.52 59.5886 113.578C59.7131 113.578 59.7754 113.67 59.7754 113.853C59.7754 113.899 59.7712 113.945 59.7671 113.991C59.7629 114.037 59.7546 114.087 59.7422 114.146C59.3769 114.121 58.9909 114.104 58.5841 114.083C58.1773 114.066 57.7705 114.058 57.3555 114.058C56.9528 114.058 56.546 114.066 56.1268 114.083C55.7076 114.1 55.3174 114.121 54.9521 114.146C54.9397 114.087 54.9314 114.037 54.9272 113.991C54.9231 113.945 54.9189 113.899 54.9189 113.853C54.9189 113.682 54.977 113.591 55.0891 113.578C55.6038 113.507 55.9774 113.424 56.2057 113.319C56.434 113.215 56.5502 113.031 56.5502 112.768V103.551H54.782C54.4374 103.551 54.151 103.585 53.9144 103.656C53.682 103.727 53.4786 103.827 53.3043 103.965C53.1341 104.102 52.9846 104.282 52.856 104.499C52.7314 104.716 52.5986 104.971 52.4616 105.259C52.4367 105.317 52.4035 105.355 52.3496 105.38C52.2956 105.405 52.2499 105.413 52.2043 105.413C52.0673 105.413 51.9594 105.38 51.8764 105.309C51.9926 104.895 52.0756 104.528 52.1337 104.202C52.1918 103.881 52.2416 103.614 52.2873 103.401C52.333 103.188 52.3828 103.025 52.4326 102.908C52.4824 102.792 52.5654 102.737 52.6816 102.737C52.7605 102.737 52.8767 102.741 53.0261 102.754C53.1756 102.767 53.3333 102.779 53.4993 102.787C53.6654 102.8 53.8356 102.812 54.0057 102.821C54.1759 102.833 54.3378 102.837 54.4872 102.837H60.2195C60.3565 102.837 60.5101 102.833 60.6844 102.821C60.8546 102.808 61.0289 102.8 61.1991 102.787C61.3693 102.775 61.527 102.762 61.6723 102.754C61.8134 102.741 61.9338 102.737 62.0251 102.737C62.1372 102.737 62.2244 102.796 62.2742 102.917C62.324 103.038 62.3697 103.209 62.4112 103.426C62.4527 103.643 62.4983 103.914 62.5564 104.236C62.6146 104.557 62.7059 104.916 62.8304 105.305C62.7723 105.33 62.7183 105.35 62.6685 105.375C62.6187 105.401 62.5564 105.409 62.49 105.409C62.4444 105.409 62.3946 105.396 62.3364 105.375C62.2783 105.35 62.241 105.313 62.2161 105.254C62.0915 104.966 61.9629 104.716 61.8384 104.495C61.7138 104.273 61.5685 104.098 61.4025 103.96C61.2365 103.823 61.0372 103.718 60.8006 103.651C60.5682 103.581 60.2776 103.547 59.9331 103.547H58.1607V103.551Z" fill="white"/>
<path d="M70.2604 109.95H66.4333L65.3333 112.73C65.2752 112.881 65.2462 112.993 65.2462 113.077C65.2462 113.319 65.5948 113.49 66.2922 113.595C66.3711 113.607 66.425 113.636 66.4541 113.691C66.4831 113.741 66.4956 113.803 66.4956 113.87C66.4956 113.903 66.4914 113.945 66.4873 113.991C66.4831 114.037 66.4748 114.087 66.4624 114.146C66.1552 114.121 65.8273 114.104 65.4828 114.083C65.1383 114.066 64.802 114.058 64.47 114.058C64.2417 114.058 64.0051 114.062 63.7685 114.075C63.5319 114.087 63.2745 114.108 63.013 114.146C62.9881 114.029 62.9798 113.937 62.9798 113.87C62.9798 113.791 62.9923 113.72 63.0213 113.661C63.0504 113.603 63.1085 113.57 63.1998 113.557C63.5526 113.499 63.8183 113.428 63.9968 113.34C64.1753 113.252 64.3039 113.119 64.3828 112.935L68.517 102.925C68.6083 102.729 68.7163 102.633 68.8449 102.633C68.8657 102.633 68.9363 102.645 69.0525 102.666L73.2033 112.985C73.2739 113.148 73.4275 113.273 73.6682 113.365C73.909 113.457 74.1414 113.519 74.3697 113.553C74.4403 113.578 74.4942 113.607 74.5316 113.649C74.5731 113.691 74.5897 113.762 74.5897 113.866C74.5897 113.899 74.5855 113.941 74.5814 113.987C74.5772 114.033 74.5648 114.083 74.5565 114.141C74.1912 114.116 73.8301 114.1 73.4773 114.079C73.1244 114.062 72.7924 114.054 72.4811 114.054C72.1615 114.054 71.7962 114.062 71.3811 114.079C70.9702 114.095 70.5966 114.116 70.2645 114.141C70.2521 114.083 70.2438 114.033 70.2396 113.987C70.2355 113.941 70.2313 113.899 70.2313 113.866C70.2313 113.762 70.2521 113.691 70.2894 113.649C70.3309 113.607 70.3683 113.59 70.4015 113.59C70.7004 113.532 70.9411 113.465 71.1237 113.39C71.3064 113.315 71.3977 113.202 71.3977 113.052C71.3977 112.973 71.3728 112.885 71.3271 112.793L70.2604 109.95ZM69.9864 109.245L68.3925 105.016L66.728 109.245H69.9864Z" fill="white"/>
<path d="M78.479 109.19V112.726C78.479 112.989 78.6035 113.177 78.8484 113.285C79.0933 113.394 79.4752 113.486 79.9899 113.553C80.1269 113.578 80.1974 113.674 80.1974 113.845C80.1974 113.891 80.1933 113.937 80.1891 113.983C80.185 114.029 80.1767 114.079 80.1642 114.137C79.8322 114.112 79.4545 114.095 79.0311 114.074C78.6077 114.058 78.1511 114.049 77.6571 114.049C77.3583 114.049 77.0221 114.058 76.6443 114.074C76.2666 114.091 75.9138 114.112 75.5817 114.137C75.5693 114.079 75.561 114.029 75.5568 113.983C75.5527 113.937 75.5485 113.895 75.5485 113.862C75.5485 113.69 75.6066 113.599 75.7187 113.586C76.1753 113.494 76.4825 113.407 76.636 113.319C76.7896 113.231 76.8685 113.077 76.8685 112.843V104.06C76.8685 103.831 76.7813 103.664 76.6028 103.559C76.4244 103.455 76.1089 103.376 75.6523 103.317C75.5361 103.305 75.4821 103.2 75.4821 103.008C75.4821 102.95 75.4946 102.866 75.5153 102.75C75.8349 102.775 76.1753 102.791 76.5364 102.808C76.8975 102.825 77.2379 102.833 77.5575 102.833H79.9775C81.2144 102.833 82.14 103.125 82.7585 103.714C83.377 104.302 83.6841 105.058 83.6841 105.993C83.6841 106.36 83.6011 106.736 83.4351 107.116C83.2691 107.496 83.0283 107.838 82.7128 108.143C82.3974 108.447 82.0114 108.698 81.5465 108.894C81.0816 109.09 80.5586 109.186 79.9775 109.186H78.479V109.19ZM79.388 108.485C80.1891 108.485 80.8076 108.306 81.2393 107.951C81.6751 107.596 81.891 106.991 81.891 106.139C81.891 105.784 81.8495 105.45 81.7706 105.137C81.6917 104.828 81.5548 104.553 81.3597 104.319C81.1646 104.085 80.9072 103.897 80.5876 103.76C80.268 103.622 79.8654 103.551 79.388 103.551H78.479V108.485H79.388Z" fill="white"/>
<path d="M93.1522 105.567L87.972 112.351V112.852C87.972 112.989 87.9844 113.098 88.0135 113.181C88.0425 113.261 88.0923 113.323 88.1587 113.373C88.2251 113.423 88.3206 113.461 88.4327 113.494C88.5448 113.528 88.6942 113.565 88.8768 113.599C89.0014 113.632 89.0636 113.716 89.0636 113.841C89.0636 113.887 89.0595 113.937 89.0553 113.987C89.0512 114.037 89.0429 114.091 89.0304 114.15C88.7316 114.125 88.4244 114.108 88.1048 114.087C87.7852 114.07 87.4697 114.062 87.1625 114.062C86.8429 114.062 86.5067 114.07 86.1497 114.087C85.7969 114.104 85.4399 114.125 85.0871 114.15C85.0747 114.091 85.0664 114.037 85.0622 113.987C85.0581 113.937 85.0539 113.887 85.0539 113.841C85.0539 113.691 85.112 113.611 85.2241 113.599C85.6599 113.519 85.9547 113.432 86.1165 113.34C86.2784 113.248 86.3573 113.085 86.3573 112.856V104.09C86.3573 103.86 86.2867 103.697 86.1497 103.605C86.0128 103.514 85.7139 103.422 85.2573 103.33C85.1411 103.317 85.0871 103.226 85.0871 103.054C85.0871 103.008 85.0913 102.963 85.0954 102.917C85.0996 102.871 85.1079 102.821 85.1203 102.762C85.4067 102.787 85.7388 102.804 86.1165 102.821C86.4943 102.837 86.8388 102.846 87.1459 102.846C87.4655 102.846 87.8018 102.837 88.1587 102.821C88.5116 102.804 88.8602 102.783 89.2048 102.762C89.2172 102.821 89.2255 102.871 89.2297 102.917C89.2338 102.963 89.238 103.008 89.238 103.054C89.238 103.226 89.1798 103.317 89.0678 103.33C88.6236 103.401 88.3289 103.484 88.1836 103.589C88.0425 103.693 87.9678 103.86 87.9678 104.09V111.061L93.148 104.277V104.09C93.148 103.835 93.0941 103.66 92.9861 103.564C92.8782 103.468 92.6416 103.388 92.2722 103.33C92.1477 103.309 92.0813 103.213 92.0813 103.054C92.0813 103.008 92.0854 102.963 92.0896 102.917C92.0937 102.871 92.102 102.821 92.1145 102.762C92.4009 102.787 92.6997 102.804 93.0152 102.821C93.3307 102.837 93.642 102.846 93.9491 102.846C94.2688 102.846 94.605 102.837 94.9536 102.821C95.3023 102.804 95.6551 102.783 96.0079 102.762C96.0204 102.821 96.0287 102.871 96.0329 102.917C96.037 102.963 96.0411 103.008 96.0411 103.054C96.0411 103.226 95.983 103.317 95.871 103.33C95.4227 103.401 95.128 103.484 94.9868 103.589C94.8457 103.693 94.771 103.86 94.771 104.09V112.856C94.771 113.085 94.8457 113.244 94.9951 113.332C95.1446 113.419 95.4393 113.507 95.8876 113.599C96.0038 113.611 96.0578 113.691 96.0578 113.841C96.0578 113.887 96.0536 113.937 96.0495 113.987C96.0453 114.037 96.0329 114.091 96.0246 114.15C95.7381 114.125 95.4019 114.108 95.0118 114.087C94.6216 114.07 94.2729 114.062 93.9657 114.062C93.6461 114.062 93.3058 114.07 92.9446 114.087C92.5835 114.104 92.2307 114.125 91.8903 114.15C91.8779 114.091 91.8696 114.037 91.8654 113.987C91.8613 113.937 91.8571 113.887 91.8571 113.841C91.8571 113.691 91.9152 113.611 92.0273 113.599C92.4507 113.519 92.7412 113.432 92.9031 113.34C93.065 113.248 93.1439 113.085 93.1439 112.856V105.567H93.1522Z" fill="white"/>
<path d="M107.597 112.851C107.597 113.081 107.672 113.24 107.821 113.327C107.971 113.415 108.265 113.502 108.714 113.594C108.83 113.607 108.884 113.686 108.884 113.836C108.884 113.882 108.88 113.932 108.876 113.983C108.871 114.033 108.859 114.087 108.851 114.145C108.564 114.12 108.228 114.104 107.838 114.083C107.448 114.066 107.099 114.058 106.792 114.058C106.472 114.058 106.132 114.066 105.771 114.083C105.41 114.099 105.057 114.12 104.716 114.145C104.704 114.087 104.696 114.033 104.691 113.983C104.687 113.932 104.683 113.882 104.683 113.836C104.683 113.686 104.741 113.607 104.853 113.594C105.277 113.515 105.567 113.427 105.729 113.336C105.891 113.244 105.97 113.081 105.97 112.851V108.677H100.582V112.851C100.582 113.081 100.657 113.24 100.806 113.327C100.956 113.415 101.255 113.502 101.699 113.594C101.823 113.619 101.886 113.699 101.886 113.836C101.886 113.882 101.881 113.932 101.877 113.983C101.873 114.033 101.865 114.087 101.852 114.145C101.553 114.12 101.213 114.104 100.823 114.083C100.433 114.066 100.084 114.058 99.7769 114.058C99.4573 114.058 99.1211 114.066 98.7641 114.083C98.4113 114.099 98.0543 114.12 97.7015 114.145C97.689 114.087 97.6807 114.033 97.6766 113.983C97.6724 113.932 97.6683 113.882 97.6683 113.836C97.6683 113.686 97.7264 113.607 97.8385 113.594C98.2743 113.515 98.569 113.427 98.7309 113.336C98.8928 113.244 98.9716 113.081 98.9716 112.851V104.085C98.9716 103.856 98.9011 103.693 98.7641 103.601C98.6271 103.509 98.3283 103.417 97.8717 103.326C97.7554 103.313 97.7015 103.221 97.7015 103.05C97.7015 103.004 97.7056 102.958 97.7098 102.912C97.7139 102.866 97.7222 102.816 97.7347 102.758C98.0211 102.783 98.3532 102.8 98.7309 102.816C99.1086 102.833 99.4531 102.841 99.7603 102.841C100.08 102.841 100.416 102.833 100.773 102.816C101.126 102.8 101.475 102.779 101.819 102.758C101.832 102.816 101.84 102.866 101.844 102.912C101.848 102.958 101.852 103.004 101.852 103.05C101.852 103.221 101.794 103.313 101.682 103.326C101.238 103.396 100.943 103.48 100.798 103.584C100.657 103.689 100.582 103.856 100.582 104.085V107.951H105.97V104.085C105.97 103.889 105.899 103.73 105.762 103.609C105.625 103.488 105.335 103.392 104.887 103.326C104.762 103.305 104.696 103.209 104.696 103.05C104.696 103.004 104.7 102.958 104.704 102.912C104.708 102.866 104.716 102.816 104.729 102.758C105.015 102.783 105.347 102.8 105.733 102.816C106.115 102.833 106.464 102.841 106.771 102.841C107.091 102.841 107.427 102.833 107.776 102.816C108.124 102.8 108.477 102.779 108.83 102.758C108.842 102.816 108.851 102.866 108.855 102.912C108.859 102.958 108.863 103.004 108.863 103.05C108.863 103.221 108.805 103.313 108.693 103.326C108.245 103.396 107.95 103.48 107.809 103.584C107.668 103.689 107.593 103.856 107.593 104.085V112.851H107.597Z" fill="white"/>
<path d="M117.053 109.95H113.226L112.126 112.73C112.067 112.881 112.038 112.993 112.038 113.077C112.038 113.319 112.387 113.49 113.084 113.595C113.163 113.607 113.217 113.636 113.246 113.691C113.275 113.741 113.288 113.803 113.288 113.87C113.288 113.903 113.284 113.945 113.28 113.991C113.275 114.037 113.267 114.087 113.255 114.146C112.947 114.121 112.62 114.104 112.275 114.083C111.931 114.066 111.594 114.058 111.262 114.058C111.034 114.058 110.797 114.062 110.561 114.075C110.324 114.087 110.067 114.108 109.805 114.146C109.78 114.029 109.772 113.937 109.772 113.87C109.772 113.791 109.785 113.72 109.814 113.661C109.843 113.603 109.901 113.57 109.992 113.557C110.345 113.499 110.611 113.428 110.789 113.34C110.968 113.252 111.096 113.119 111.175 112.935L115.309 102.925C115.401 102.729 115.509 102.633 115.637 102.633C115.658 102.633 115.729 102.645 115.845 102.666L119.996 112.985C120.066 113.148 120.22 113.273 120.46 113.365C120.701 113.457 120.934 113.519 121.162 113.553C121.233 113.578 121.286 113.607 121.324 113.649C121.365 113.691 121.382 113.762 121.382 113.866C121.382 113.899 121.378 113.941 121.374 113.987C121.369 114.033 121.357 114.083 121.349 114.141C120.983 114.116 120.622 114.1 120.27 114.079C119.917 114.062 119.585 114.054 119.273 114.054C118.954 114.054 118.588 114.062 118.173 114.079C117.762 114.095 117.389 114.116 117.057 114.141C117.044 114.083 117.036 114.033 117.032 113.987C117.028 113.941 117.024 113.899 117.024 113.866C117.024 113.762 117.044 113.691 117.082 113.649C117.123 113.607 117.161 113.59 117.194 113.59C117.493 113.532 117.733 113.465 117.916 113.39C118.099 113.315 118.19 113.202 118.19 113.052C118.19 112.973 118.165 112.885 118.119 112.793L117.053 109.95ZM116.779 109.245L115.185 105.016L113.52 109.245H116.779Z" fill="white"/>
<path d="M158.183 96.0459C158.183 96.0459 155.763 95.0983 151.571 93.3284C149.5 92.3516 146.872 91.5877 143.95 90.4899C141.044 89.3503 137.645 88.4403 133.988 87.3257C133.075 87.0544 132.141 86.7706 131.19 86.4867C130.223 86.2613 129.239 86.0317 128.239 85.7979C126.247 85.3137 124.184 84.8128 122.067 84.2952C119.946 83.8151 117.733 83.4895 115.496 83.0638C113.25 82.6756 110.976 82.1705 108.622 81.9367C106.281 81.632 103.903 81.3147 101.491 80.9975C99.0795 80.7387 96.6223 80.6176 94.1567 80.3964C92.9239 80.3004 91.6869 80.2002 90.4458 80.1C89.2047 80.0374 87.9553 80.0416 86.7018 79.9957C84.1988 79.9289 81.6876 79.8579 79.1763 79.7953C76.6568 79.8621 74.1331 79.9289 71.626 79.9998C70.36 80.0416 69.0857 80.0499 67.8404 80.1084C66.6076 80.2085 65.379 80.3087 64.1545 80.4089C61.7014 80.6301 59.269 80.7512 56.8615 81.0058C54.454 81.3231 52.0756 81.6403 49.7304 81.9492C47.3768 82.1788 45.1022 82.6881 42.8566 83.0763C40.6152 83.5021 38.4069 83.8235 36.2817 84.3077C34.1648 84.8212 32.106 85.3262 30.1094 85.8105C29.1091 86.0442 28.1295 86.2738 27.1623 86.4992C26.2118 86.7831 25.2778 87.0628 24.3647 87.3424C20.7078 88.457 17.3083 89.3628 14.3902 90.5066C11.4597 91.6044 8.82812 92.3767 6.77346 93.3409C2.60188 95.1025 0.169495 96.0542 0.169495 96.0542C0.169495 96.0542 2.38604 94.6141 6.35008 92.1972C8.30511 90.9115 10.8164 89.7176 13.6763 88.2608C14.3944 87.9018 15.1332 87.5261 15.897 87.1462C16.2789 86.9542 16.6649 86.7622 17.0551 86.5618C17.4535 86.3907 17.8603 86.2196 18.2713 86.0442C19.9274 85.3638 21.6625 84.65 23.4764 83.9028C24.3854 83.5313 25.3152 83.1514 26.2616 82.7674C27.2246 82.4376 28.2042 82.1079 29.2004 81.7697C31.2011 81.1185 33.2765 80.4506 35.4059 79.7619C37.5477 79.1149 39.7767 78.6181 42.043 78.0212C44.3094 77.4368 46.6339 76.8482 49.0289 76.4767C51.4156 76.0593 53.848 75.6335 56.3053 75.2077C58.7792 74.8404 61.3112 74.64 63.8515 74.3645C65.1216 74.2351 66.4001 74.1015 67.6827 73.9763C68.9528 73.8761 70.2147 73.8678 71.4807 73.8135C74.0376 73.7258 76.607 73.6423 79.1763 73.5547C81.754 73.6423 84.3317 73.73 86.8969 73.8177C88.1795 73.8678 89.4621 73.8845 90.7364 73.9846C92.0065 74.114 93.2767 74.2434 94.5427 74.3728C97.0664 74.6442 99.5818 74.8529 102.047 75.2161C104.505 75.6418 106.933 76.0676 109.324 76.4851C111.715 76.8566 114.035 77.4493 116.31 78.0337C118.576 78.6306 120.809 79.1274 122.947 79.7702C125.072 80.459 127.143 81.1311 129.148 81.7823C130.144 82.1204 131.124 82.4501 132.087 82.7799C133.033 83.1681 133.959 83.548 134.868 83.9153C136.682 84.6625 138.421 85.3763 140.073 86.0609C140.488 86.2363 140.895 86.4074 141.293 86.5785C141.684 86.7747 142.074 86.9709 142.456 87.1629C143.219 87.547 143.962 87.9227 144.681 88.2858C147.549 89.7427 150.068 90.9449 152.003 92.218C155.954 94.6016 158.183 96.0459 158.183 96.0459Z" fill="white"/>
<path d="M64.2126 61.3073H71.0697V54.4114H64.2126V61.3073ZM75.6107 61.3073H82.4679V54.4114H75.6107V61.3073ZM155.958 76.7231L126.645 47.6824V17.8987L112.524 3.69765V33.6943L84.535 5.96012L79.0435 0.520996L73.5519 5.96012L2.12036 76.7231L79.0393 23.1207L155.958 76.7231ZM79.1763 6.46104V18.0573L30.7237 53.397L79.1763 6.46104ZM64.2126 50.4541H71.0697V43.5582H64.2126V50.4541ZM75.6107 50.4541H82.4679V43.5582H75.6107V50.4541ZM87.0048 50.4541H93.8619V43.5582H87.0048V50.4541ZM87.0048 61.3073H93.8619V54.4114H87.0048V61.3073Z" fill="white"/>
</svg>
